<svg width="82" height="82" viewBox="0 0 82 82" fill="none" xmlns="http://www.w3.org/2000/svg">
<path d="M79.76 25.45C79.75 35.26 74.04 44.17 65.13 48.28L68.7 19.64H72.31C72.93 19.64 73.43 19.14 73.43 18.52V16.44H75.11C77.67 16.44 79.75 18.52 79.75 21.08V25.44L79.76 25.45ZM61.11 62.48H20.9L19.55 51.69C22.09 52.45 24.73 52.84 27.38 52.84H30.22V56.16C30.22 56.78 30.72 57.28 31.34 57.28H50.64C51.26 57.28 51.76 56.78 51.76 56.16V52.84H54.6C57.25 52.84 59.89 52.45 62.43 51.69L61.09 62.48H61.11ZM60.31 68.89H21.7L21.18 64.72H60.82L60.3 68.89H60.31ZM2.24 25.45V21.09C2.24 18.53 4.32 16.45 6.88 16.45H8.56V18.53C8.56 19.15 9.06 19.65 9.68 19.65H13.29L16.86 48.29C7.96 44.17 2.25 35.26 2.24 25.45ZM10.81 13.24H39.88V17.41H10.81V13.24ZM61.26 18.53V27.97C61.26 29.21 60.25 30.22 59.01 30.22H58.62C57.38 30.22 56.37 29.21 56.37 27.97C56.37 25.49 54.36 23.48 51.88 23.48H51.49C49.01 23.48 47 25.49 47 27.97V35.26C47 36.5 45.99 37.51 44.75 37.51H44.36C43.12 37.51 42.11 36.5 42.11 35.26V13.24H61.25V18.53H61.26ZM50.65 46.16H31.35C30.73 46.16 30.23 46.66 30.23 47.28V50.6H27.39C24.62 50.6 21.87 50.14 19.25 49.24L15.57 19.65H39.88V35.26C39.88 37.74 41.89 39.75 44.37 39.75H44.76C47.24 39.75 49.25 37.74 49.25 35.26V27.97C49.25 26.73 50.26 25.72 51.5 25.72H51.89C53.13 25.72 54.14 26.73 54.14 27.97C54.14 30.45 56.15 32.46 58.63 32.46H59.02C61.5 32.46 63.51 30.45 63.51 27.97V19.65H66.44L62.76 49.24C60.14 50.14 57.39 50.6 54.62 50.6H51.77V47.28C51.77 46.66 51.27 46.16 50.65 46.16ZM32.47 48.4H49.53V55.05H32.47V48.4ZM71.19 17.41H63.5V13.24H71.19V17.41ZM75.11 14.21H73.43V12.12C73.43 11.5 72.93 11 72.31 11H9.69C9.07 11 8.57 11.5 8.57 12.12V14.2H6.89C3.08 14.21 0 17.29 0 21.09V25.45C0.01 36.63 6.82 46.69 17.19 50.86L18.79 63.74L19.59 70.15C19.66 70.71 20.14 71.13 20.7 71.13H61.3C61.87 71.13 62.34 70.71 62.41 70.15L63.21 63.74L64.81 50.86C75.19 46.69 81.99 36.63 82 25.45V21.09C82 17.29 78.91 14.21 75.11 14.2V14.21Z" fill="#243642"/>
</svg>
