<svg width="82" height="82" viewBox="0 0 82 82" fill="none" xmlns="http://www.w3.org/2000/svg">
<g clip-path="url(#clip0_92_402)">
<mask id="mask0_92_402" style="mask-type:luminance" maskUnits="userSpaceOnUse" x="0" y="0" width="82" height="82">
<path d="M82 0H0V82H82V0Z" fill="white"/>
</mask>
<g mask="url(#mask0_92_402)">
<path d="M79.76 21.77L69.99 12L60.22 2.24H79.75V21.77H79.76ZM79.76 44.33L78.93 43.5L59.5 24.07L64.35 19.22L69.2 14.37L79.76 24.93V44.32V44.33ZM79.76 66.89L68.45 55.58L73.3 50.73L78.15 45.88L79.77 47.5V66.89H79.76ZM79.76 79.76H70.06L56.37 66.07L36.94 46.64L41.79 41.79L46.64 36.94L66.07 56.37L79.76 70.06V79.76ZM47.51 79.76L45.89 78.14L50.74 73.29L55.59 68.44L66.9 79.75H47.51V79.76ZM24.95 79.76L14.39 69.2L19.24 64.35L24.09 59.5L43.52 78.93L44.34 79.76H24.94H24.95ZM2.25 79.76V60.23L12.02 70L21.79 79.77H2.24L2.25 79.76ZM2.25 37.67L3.08 38.5L22.5 57.92L17.65 62.77L12.8 67.62L2.24 57.05V37.66L2.25 37.67ZM2.25 15.11L13.56 26.42L8.72 31.27L3.87 36.12L2.25 34.5V15.11ZM54 66.86L49.15 71.71L44.3 76.56L24.87 57.13L5.45 37.7L10.3 32.85L15.15 28L34.58 47.42L54.01 66.85L54 66.86ZM2.24 2.24H11.94L25.63 15.93L45.05 35.35L40.2 40.2L35.36 45.05L15.93 25.63L2.24 11.94V2.24ZM34.49 2.24L36.11 3.86L31.26 8.71L26.41 13.56L15.11 2.24H34.5H34.49ZM76.55 44.3L71.7 49.15L66.85 54L47.42 34.57L28.01 15.14L32.86 10.29L37.71 5.44L57.13 24.87L76.56 44.3H76.55ZM57.05 2.24L67.61 12.8L62.76 17.65L57.91 22.5L38.49 3.07L37.66 2.24H57.05ZM80.88 0H1.12C0.5 0 0 0.5 0 1.12V80.88C0 81.5 0.5 82 1.12 82H80.88C81.5 82 82 81.5 82 80.88V1.12C82 0.5 81.5 0 80.88 0Z" fill="#243642"/>
</g>
</g>
<defs>
<clipPath id="clip0_92_402">
<rect width="82" height="82" fill="white"/>
</clipPath>
</defs>
</svg>
