<svg width="82" height="82" viewBox="0 0 82 82" fill="none" xmlns="http://www.w3.org/2000/svg">
<mask id="mask0_92_401" style="mask-type:luminance" maskUnits="userSpaceOnUse" x="0" y="2" width="82" height="79">
<path d="M82 2H0V80.43H82V2Z" fill="white"/>
</mask>
<g mask="url(#mask0_92_401)">
<path d="M79.76 78.19H5.91C3.89 78.19 2.25 76.55 2.25 74.53C2.25 72.51 3.89 70.87 5.91 70.87H10.69C11.31 70.87 11.81 70.37 11.81 69.75V21.6H79.76V78.2V78.19ZM2.24 20.47C2.21 18.45 3.83 16.78 5.86 16.76C7.88 16.73 9.55 18.35 9.57 20.37C9.57 20.4 9.57 20.43 9.57 20.47V68.62H5.91C4.58 68.62 3.29 69.08 2.25 69.9V20.47H2.24ZM80.88 19.35H11.7C11.08 16.15 7.98 14.06 4.78 14.68C2.01 15.22 0 17.65 0 20.47V74.52C0 77.78 2.65 80.42 5.91 80.43H80.88C81.5 80.43 82 79.93 82 79.31V20.47C82 19.85 81.5 19.35 80.88 19.35Z" fill="#243642"/>
<path d="M38.44 32.85L44.01 37.38L53.82 45.36H23.06L38.43 32.84L38.44 32.85ZM54.23 32.53L70 45.37H57.36L41.59 32.53H54.23ZM65.27 65.17H51.35V47.62H65.27V65.17ZM49.11 65.17H43.91V56.39C43.91 55.77 43.41 55.27 42.79 55.27H34.08C33.46 55.27 32.96 55.77 32.96 56.39V65.17H27.77V47.62H49.11V65.17ZM41.67 65.17H35.21V57.52H41.67V65.17ZM19.91 47.62H25.53V66.29C25.53 66.91 26.03 67.41 26.65 67.41H66.39C67.01 67.41 67.51 66.91 67.51 66.29V47.62H73.15C73.77 47.62 74.27 47.11 74.27 46.5C74.27 46.16 74.12 45.85 73.86 45.63L55.33 30.55C55.13 30.39 54.88 30.3 54.63 30.3H38.44C38.18 30.3 37.94 30.4 37.74 30.55L19.21 45.63C18.73 46.02 18.66 46.73 19.05 47.21C19.26 47.47 19.58 47.62 19.92 47.62H19.91Z" fill="#243642"/>
<path d="M77.85 14.23H72.27V4.24H77.85C79.08 5.61 79.76 7.39 79.76 9.23C79.76 11.07 79.09 12.85 77.85 14.22V14.23ZM70.03 14.23H65.39V4.24H70.03V14.23ZM25.67 14.23L25.85 14.05C26.17 13.73 26.45 13.38 26.7 13.01C27.45 11.89 27.84 10.58 27.84 9.24C27.84 7.9 27.45 6.58 26.7 5.47C26.45 5.1 26.16 4.75 25.85 4.43L25.67 4.25H63.15V14.23H25.67ZM24.84 11.77C24.67 12.02 24.48 12.25 24.27 12.47L22.74 14L19 12.17V6.31L22.74 4.48L24.27 6.01C24.48 6.22 24.67 6.46 24.84 6.71C25.86 8.24 25.86 10.24 24.84 11.77ZM16.75 11.07L12.99 9.24L16.75 7.41V11.08V11.07ZM79.12 2.32C78.91 2.11 78.63 2 78.33 2H22.96C22.96 2 22.91 2 22.88 2.01C22.76 2.01 22.65 2.05 22.54 2.09C22.52 2.1 22.49 2.1 22.46 2.11L17.37 4.59L9.93001 8.22C9.37001 8.49 9.14001 9.16 9.41001 9.72C9.52001 9.94 9.70001 10.13 9.93001 10.24L17.37 13.87L22.46 16.35C22.46 16.35 22.53 16.38 22.57 16.39C22.6 16.4 22.63 16.41 22.66 16.42C22.76 16.45 22.86 16.46 22.96 16.46H78.33C78.63 16.46 78.91 16.34 79.12 16.14C82.94 12.36 82.97 6.2 79.19 2.39C79.17 2.37 79.15 2.35 79.12 2.32Z" fill="#243642"/>
</g>
</svg>
