<svg width="24" height="25" viewBox="0 0 24 25" fill="none" xmlns="http://www.w3.org/2000/svg">
<g clip-path="url(#clip0_141_136)">
<path d="M11.9579 24.508L11.2608 23.9105C10.2998 23.1058 1.90887 15.8591 1.90887 10.5583C1.90887 5.00839 6.40798 0.509277 11.9579 0.509277C17.5078 0.509277 22.0069 5.00839 22.0069 10.5583C22.0069 15.8592 13.616 23.1059 12.659 23.9145L11.9579 24.508ZM11.9579 2.68217C7.61009 2.68709 4.08673 6.21045 4.08181 10.5582C4.08181 13.8883 9.24425 19.2081 11.9579 21.6429C14.6716 19.2071 19.834 13.8843 19.834 10.5582C19.829 6.21045 16.3057 2.68714 11.9579 2.68217Z" fill="#4A566C"/>
<path d="M11.958 14.5414C9.75808 14.5414 7.97467 12.758 7.97467 10.5581C7.97467 8.35811 9.75808 6.57471 11.958 6.57471C14.158 6.57471 15.9414 8.35811 15.9414 10.5581C15.9414 12.758 14.158 14.5414 11.958 14.5414ZM11.958 8.56633C10.858 8.56633 9.96634 9.45804 9.96634 10.558C9.96634 11.658 10.858 12.5497 11.958 12.5497C13.058 12.5497 13.9497 11.658 13.9497 10.558C13.9497 9.45804 13.058 8.56633 11.958 8.56633Z" fill="#4A566C"/>
</g>
<defs>
<clipPath id="clip0_141_136">
<rect width="24" height="24" fill="white" transform="translate(0 0.5)"/>
</clipPath>
</defs>
</svg>
