<svg width="82" height="82" viewBox="0 0 82 82" fill="none" xmlns="http://www.w3.org/2000/svg">
<g clip-path="url(#clip0_92_400)">
<path d="M68.36 41.52C68.36 44.17 66.39 46.41 63.76 46.76L36.71 50.3C36.15 50.37 35.74 50.85 35.74 51.41V58.1H32.86V47.9L63.39 43.91C64.59 43.75 65.48 42.73 65.48 41.53V32.3C65.48 30.97 64.4 29.9 63.08 29.9H57.59V27.02H63.07C65.99 27.02 68.35 29.39 68.36 32.31V41.54V41.52ZM37.98 79.76H30.61V60.34H37.98V79.76ZM55.35 33.56C55.35 34 54.99 34.36 54.55 34.36H14.04C13.6 34.36 13.24 34 13.24 33.56V23.35C13.24 22.91 13.6 22.55 14.04 22.55H54.55C54.99 22.55 55.35 22.91 55.35 23.35V33.56ZM18 4.4C18 3.21 18.97 2.24 20.16 2.24H20.68C21.87 2.24 22.84 3.21 22.84 4.4C22.84 6.83 24.81 8.8 27.25 8.8H27.77C30.2 8.8 32.17 6.83 32.18 4.39C32.18 3.2 33.15 2.23 34.34 2.23H34.86C36.05 2.23 37.02 3.2 37.03 4.39V8.95C37.03 11.38 39 13.35 41.44 13.35H41.96C44.39 13.35 46.36 11.38 46.36 8.95V4.4C46.36 3.21 47.33 2.24 48.52 2.24H49.04C50.23 2.24 51.2 3.21 51.2 4.4V20.3H24.97V12.53C24.97 11.91 24.47 11.41 23.85 11.41C23.23 11.41 22.73 11.91 22.73 12.53V20.3H18V4.4ZM63.07 24.77H57.59V23.35C57.59 21.67 56.23 20.31 54.55 20.31H53.43V4.4C53.43 1.97 51.46 0 49.03 0H48.51C46.08 0 44.11 1.97 44.11 4.4V8.96C44.11 10.15 43.14 11.12 41.95 11.12H41.43C40.24 11.12 39.27 10.15 39.27 8.96V4.4C39.27 1.97 37.3 0 34.86 0H34.34C31.91 0 29.94 1.97 29.94 4.41C29.94 5.6 28.97 6.57 27.78 6.57H27.26C26.07 6.57 25.1 5.6 25.1 4.41C25.1 1.98 23.13 0.01 20.7 0.01H20.18C17.75 0.01 15.78 1.98 15.78 4.41V20.31H14.06C12.38 20.31 11.02 21.67 11.02 23.35V33.56C11.02 35.24 12.38 36.6 14.06 36.6H54.55C56.23 36.6 57.59 35.24 57.59 33.56V32.14H63.07C63.16 32.14 63.23 32.21 63.23 32.3V41.53C63.23 41.61 63.17 41.68 63.09 41.69L31.58 45.81C31.02 45.88 30.61 46.36 30.61 46.92V58.11H29.49C28.87 58.11 28.37 58.61 28.37 59.23V80.89C28.37 81.51 28.87 82.01 29.49 82.01H39.1C39.72 82.01 40.22 81.51 40.22 80.89V59.23C40.22 58.61 39.72 58.11 39.1 58.11H37.98V52.4L64.05 48.99C67.79 48.49 70.59 45.3 70.6 41.53V32.3C70.6 28.14 67.23 24.77 63.07 24.77Z" fill="#243642"/>
<path d="M30.93 18.1C31.55 18.1 32.05 17.6 32.05 16.98V13.98C32.05 13.36 31.55 12.86 30.93 12.86C30.31 12.86 29.81 13.36 29.81 13.98V16.98C29.81 17.6 30.31 18.1 30.93 18.1Z" fill="#243642"/>
</g>
<defs>
<clipPath id="clip0_92_400">
<rect width="82" height="82" fill="white"/>
</clipPath>
</defs>
</svg>
