<svg width="82" height="82" viewBox="0 0 82 82" fill="none" xmlns="http://www.w3.org/2000/svg">
<path fillRule="evenodd" clipRule="evenodd" d="M79.76 55.72H74.66V50.49C74.66 49.87 74.16 49.37 73.54 49.37C72.92 49.37 72.42 49.87 72.42 50.49V55.72H66.53V52.02C66.53 51.4 66.03 50.9 65.41 50.9C64.79 50.9 64.29 51.4 64.29 52.02V55.72H58.4V50.49C58.4 49.87 57.9 49.37 57.28 49.37C56.66 49.37 56.16 49.87 56.16 50.49V55.72H50.27V52.02C50.27 51.4 49.77 50.9 49.15 50.9C48.53 50.9 48.03 51.4 48.03 52.02V55.72H42.14V50.49C42.14 49.87 41.64 49.37 41.02 49.37C40.4 49.37 39.9 49.87 39.9 50.49V55.72H34.01V52.02C34.01 51.4 33.51 50.9 32.89 50.9C32.27 50.9 31.77 51.4 31.77 52.02V55.72H25.88V50.49C25.88 49.87 25.38 49.37 24.76 49.37C24.14 49.37 23.64 49.87 23.64 50.49V55.72H17.75V52.02C17.75 51.4 17.25 50.9 16.63 50.9C16.01 50.9 15.51 51.4 15.51 52.02V55.72H9.62V50.49C9.62 49.87 9.12 49.37 8.5 49.37C7.88 49.37 7.38 49.87 7.38 50.49V55.72H2.24V40.64H7.61C8.23 40.64 8.73 40.14 8.73 39.52C8.73 38.15 8.82 36.78 9 35.41L14.47 36.37C14.53 36.38 14.6 36.39 14.67 36.39C15.29 36.39 15.79 35.89 15.79 35.27C15.79 34.73 15.4 34.26 14.86 34.17L9.36 33.2C9.95 30.23 10.97 27.36 12.37 24.68L14.89 26.14C15.42 26.45 16.11 26.27 16.42 25.74C16.73 25.21 16.55 24.52 16.02 24.21H16.01L13.46 22.74C15.05 20.15 16.99 17.79 19.23 15.74L22.95 20.17C23.35 20.64 24.06 20.71 24.53 20.31C25 19.91 25.07 19.2 24.67 18.73L20.94 14.29C23.33 12.39 25.97 10.84 28.79 9.68001L29.94 12.85C30.15 13.43 30.8 13.73 31.38 13.52C31.96 13.31 32.26 12.66 32.05 12.08L30.9 8.91001C33.8 7.95001 36.83 7.41001 39.88 7.31001V13.2C39.88 13.82 40.38 14.32 41 14.32C41.62 14.32 42.12 13.82 42.12 13.2V7.28001C45.18 7.38001 48.2 7.92001 51.1 8.88001L49.95 12.05C49.74 12.63 50.04 13.28 50.62 13.49C51.2 13.7 51.85 13.4 52.06 12.82L53.21 9.65001C56.03 10.81 58.68 12.36 61.06 14.26L57.33 18.7C56.93 19.17 56.99 19.88 57.47 20.28C57.94 20.68 58.65 20.62 59.05 20.14L62.77 15.71C65.01 17.76 66.96 20.12 68.55 22.71L66 24.18C65.47 24.49 65.29 25.18 65.6 25.71C65.91 26.24 66.59 26.42 67.12 26.12L69.64 24.66C71.04 27.34 72.05 30.21 72.65 33.18L67.14 34.15C66.53 34.26 66.12 34.84 66.23 35.45C66.32 35.99 66.79 36.38 67.33 36.38C67.4 36.38 67.46 36.38 67.53 36.36L73 35.4C73.18 36.76 73.27 38.13 73.27 39.51C73.27 40.13 73.77 40.63 74.39 40.63H79.76V55.7V55.72ZM80.88 38.4H75.5C74.88 19.35 58.94 4.40001 39.89 5.02001C21.7 5.60001 7.09 20.21 6.51 38.4H1.12C0.5 38.4 0 38.9 0 39.52V56.84C0 57.46 0.5 57.96 1.12 57.96H80.88C81.5 57.96 82 57.46 82 56.84V39.52C82 38.9 81.5 38.4 80.88 38.4ZM24.19 38.4C24.8 29.12 32.81 22.08 42.1 22.69C50.54 23.24 57.26 29.96 57.81 38.4H24.19ZM41 20.42C30.46 20.43 21.92 28.98 21.91 39.53C21.91 40.15 22.41 40.65 23.03 40.65H58.96C59.56 40.65 60.05 40.17 60.08 39.57V39.51C60.07 28.98 51.53 20.44 41 20.42ZM67.62 74.6H73.19H73.2C75.74 71.76 75.74 67.46 73.2 64.62H67.62V74.6ZM65.37 64.62H60.73V74.6H65.37V64.62ZM18.07 64.85L14.33 66.68L14.32 66.67V72.53L18.06 74.36L19.59 72.83C19.7 72.72 19.8 72.61 19.9 72.49C19.905 72.485 19.91 72.4775 19.915 72.47C19.92 72.4625 19.925 72.455 19.93 72.45C21.26 70.78 21.25 68.41 19.91 66.73C19.81 66.61 19.71 66.49 19.6 66.38L18.07 64.85ZM12.09 71.44V67.77L8.33004 69.61L12.09 71.44ZM58.49 74.59V64.61V64.6H21.02L21.2 64.78C21.36 64.94 21.51 65.11 21.66 65.29C21.67 65.3 21.6775 65.3125 21.685 65.325C21.6925 65.3375 21.7 65.35 21.71 65.36C23.67 67.83 23.67 71.33 21.71 73.81C21.7 73.825 21.69 73.8375 21.68 73.85C21.67 73.8625 21.66 73.875 21.65 73.89C21.53 74.04 21.4 74.19 21.26 74.33C21.23 74.36 21.19 74.41 21.19 74.41L21.01 74.59H58.49ZM18.3 62.37H73.67V62.36C73.97 62.36 74.25 62.48 74.46 62.69L74.53 62.76C78.31 66.57 78.28 72.73 74.46 76.51C74.25 76.71 73.97 76.83 73.67 76.83H18.3C18.2 76.82 18.1 76.81 18 76.78C17.9888 76.7762 17.9789 76.771 17.9693 76.766C17.9536 76.7578 17.9388 76.75 17.92 76.75C17.88 76.74 17.81 76.71 17.81 76.71L12.72 74.23L5.28005 70.6C5.05005 70.49 4.87004 70.31 4.76005 70.08C4.49005 69.52 4.72005 68.85 5.28005 68.58L12.72 64.95L17.81 62.47C17.825 62.465 17.8375 62.4625 17.85 62.46C17.8625 62.4575 17.875 62.455 17.89 62.45C17.94 62.43 18 62.41 18.06 62.4L18.0601 62.4C18.1101 62.39 18.1601 62.38 18.22 62.38C18.25 62.37 18.3 62.37 18.3 62.37Z" fill="#243642"/>
</svg>
