<svg width="112" height="48" viewBox="0 0 112 48" fill="none" xmlns="http://www.w3.org/2000/svg">
<g clip-path="url(#clip0_126_1161)">
<path d="M110.769 0.774256V36.3126H46.5755V0.774256H110.765M111.539 0H45.8013V37.0869H111.539V0Z" fill="black"/>
<path d="M11.5558 34.1103C10.4021 34.4548 9.18655 34.6252 7.90903 34.6252C5.88822 34.6252 4.43262 34.1683 3.54609 33.2586C2.65957 32.3488 2.21437 30.8739 2.21437 28.8298V20.0537H0V16.6392H2.21437V11.7769H6.51149V16.6392H10.5763V20.0537H6.51149V28.2801C6.51149 29.368 6.68183 30.1074 7.01863 30.4945C7.35543 30.8816 7.83547 31.0791 8.45875 31.0791C9.24849 31.0791 10.0305 30.9165 10.8047 30.5951L11.5558 34.1103Z" fill="black"/>
<path d="M23.5492 34.11V24.486C23.5492 22.6433 23.3789 21.4239 23.0343 20.8238C22.6898 20.2238 22.0781 19.9257 21.2032 19.9257C19.9257 19.9257 18.3888 20.7696 16.5925 22.4575V34.1139H12.2954V9.31836H16.5925V18.9114C17.5023 18.0016 18.474 17.3126 19.5076 16.848C20.5412 16.3834 21.5516 16.1473 22.5388 16.1473C24.4938 16.1473 25.8642 16.697 26.6617 17.7965C27.4553 18.8959 27.8541 20.4483 27.8541 22.4575V34.1139H23.557L23.5492 34.11Z" fill="black"/>
<path d="M34.1949 26.5031C34.2723 28.0555 34.6517 29.1743 35.3253 29.8518C36.0027 30.5292 37.0673 30.866 38.523 30.866C39.3669 30.866 40.1063 30.7615 40.7451 30.5486C41.3838 30.3395 41.9413 29.9331 42.4175 29.333L45.6151 31.6132C44.9144 32.6236 44.0086 33.3785 42.8936 33.8779C41.7787 34.3773 40.2534 34.6289 38.3216 34.6289C35.4453 34.6289 33.3006 33.874 31.8876 32.3642C30.4707 30.8544 29.7661 28.5742 29.7661 25.5198C29.7661 19.2715 32.565 16.1436 38.159 16.1436C40.6444 16.1436 42.5413 16.8443 43.846 18.2495C45.1506 19.6548 45.801 21.6988 45.801 24.3855V26.4992H34.1949V26.5031ZM41.5387 23.5377C41.5387 20.8859 40.3773 19.558 38.0584 19.558C37.2919 19.558 36.6647 19.6896 36.177 19.949C35.6892 20.2084 35.2982 20.5994 35.004 21.1143C34.7097 21.6292 34.4813 22.4383 34.311 23.5377H41.5387Z" fill="black"/>
<path d="M66.2881 34.1098H62.3743L58.4449 22.9876L54.5001 34.1098H50.5708L45.8091 16.6426H50.2727L52.9709 27.9003L56.8848 16.6426H60.1328L64.0777 27.7996L66.6753 16.6426H70.9724L66.292 34.1098H66.2881Z" fill="black"/>
<path d="M75.4707 26.5031C75.5482 28.0555 75.9275 29.1743 76.6012 29.8518C77.2786 30.5292 78.3432 30.866 79.7988 30.866C80.6428 30.866 81.3822 30.7615 82.0209 30.5486C82.6597 30.3395 83.2172 29.9331 83.6933 29.333L86.891 31.6132C86.1903 32.6236 85.2844 33.3785 84.1695 33.8779C83.0546 34.3773 81.5293 34.6289 79.5975 34.6289C76.7212 34.6289 74.5765 33.874 73.1635 32.3642C71.7466 30.8544 71.042 28.5742 71.042 25.5198C71.042 19.2715 73.8409 16.1436 79.4349 16.1436C81.9203 16.1436 83.8172 16.8443 85.1218 18.2495C86.4265 19.6548 87.0768 21.6988 87.0768 24.3855V26.4992H75.4707V26.5031ZM82.8146 23.5377C82.8146 20.8859 81.6532 19.558 79.3343 19.558C78.5678 19.558 77.9406 19.6896 77.4528 19.949C76.9651 20.2084 76.5741 20.5994 76.2798 21.1143C75.9856 21.6292 75.7572 22.4383 75.5869 23.5377H82.8146Z" fill="black"/>
<path d="M105.349 25.2525C105.349 28.1483 104.742 30.4362 103.526 32.1125C102.31 33.7887 100.576 34.6249 98.3229 34.6249C97.4364 34.6249 96.4647 34.4236 95.4156 34.0171C94.3665 33.6106 93.5303 33.0996 92.9109 32.4764L92.3263 34.11H89.0474V9.31836H93.3445V18.0442C94.9201 16.7783 96.6622 16.1473 98.5746 16.1473C100.917 16.1473 102.632 16.9564 103.72 18.5707C104.807 20.185 105.353 22.4149 105.353 25.2564L105.349 25.2525ZM100.921 25.3184C100.921 23.5221 100.638 22.171 100.073 21.2729C99.5076 20.3747 98.5978 19.9257 97.3435 19.9257C96.6428 19.9257 95.9382 20.0883 95.2221 20.4173C94.5059 20.7464 93.8826 21.149 93.3484 21.6252V29.2671C93.8245 29.6774 94.4052 30.0413 95.0866 30.3588C95.7679 30.6762 96.4338 30.8349 97.0764 30.8349C98.3075 30.8349 99.2559 30.3665 99.9257 29.4297C100.592 28.4928 100.924 27.1224 100.924 25.3261L100.921 25.3184Z" fill="black"/>
<path d="M2.55504 45.8397C2.43116 45.7429 2.29567 45.6655 2.14469 45.6036C1.99371 45.5416 1.8466 45.4836 1.69175 45.4332C1.54077 45.3829 1.4014 45.3248 1.27752 45.2629C1.15364 45.201 1.05299 45.1235 0.975563 45.0345C0.898137 44.9455 0.859424 44.8293 0.859424 44.6822C0.859424 44.5003 0.929107 44.357 1.0646 44.2564C1.2001 44.1557 1.38592 44.1054 1.61819 44.1054C1.80789 44.1054 1.97822 44.1441 2.12533 44.2177C2.27244 44.2912 2.41181 44.4035 2.53956 44.5545L2.9383 44.1557C2.79894 43.9776 2.61311 43.8344 2.39245 43.7221C2.17179 43.6099 1.91628 43.5557 1.63368 43.5557C1.37818 43.5557 1.1459 43.6021 0.940721 43.695C0.735543 43.7879 0.572949 43.9196 0.456811 44.0938C0.336801 44.2641 0.278732 44.4732 0.278732 44.717C0.278732 44.9416 0.317445 45.1235 0.390999 45.2668C0.464554 45.41 0.565207 45.5261 0.692959 45.6191C0.820711 45.712 0.956206 45.7855 1.10719 45.8475C1.25817 45.9094 1.40527 45.9636 1.55625 46.0139C1.70723 46.0643 1.84273 46.1223 1.96661 46.1843C2.09049 46.2501 2.19114 46.3314 2.26857 46.4282C2.346 46.5249 2.38471 46.6566 2.38471 46.8192C2.38471 47.0127 2.30728 47.1676 2.15243 47.2798C1.99758 47.3921 1.7924 47.4463 1.53303 47.4463C1.27365 47.4463 1.05299 47.396 0.874909 47.2992C0.69683 47.2024 0.538108 47.0592 0.402613 46.8656L0 47.2721C0.185821 47.5082 0.398742 47.6902 0.642632 47.8141C0.882652 47.938 1.173 47.9999 1.50593 47.9999C1.95887 47.9999 2.31503 47.8915 2.57827 47.6747C2.84152 47.4579 2.97314 47.1598 2.97314 46.7804C2.97314 46.552 2.93443 46.3623 2.857 46.2114C2.77958 46.0604 2.67893 45.9365 2.55504 45.8397Z" fill="black"/>
<path d="M12.8838 44.1983C12.6864 43.997 12.4541 43.8383 12.1909 43.726C11.9276 43.6138 11.6412 43.5596 11.3353 43.5596C11.0295 43.5596 10.743 43.6138 10.4798 43.726C10.2165 43.8383 9.98812 43.997 9.79069 44.1983C9.59325 44.4035 9.4384 44.6358 9.32613 44.9029C9.21387 45.17 9.15967 45.4604 9.15967 45.7701C9.15967 46.0798 9.21387 46.3662 9.32613 46.6334C9.4384 46.9005 9.59325 47.1405 9.79456 47.3457C9.99199 47.5509 10.2243 47.7096 10.4914 47.8257C10.7585 47.9419 11.045 47.9961 11.3508 47.9961C11.6566 47.9961 11.9354 47.938 12.1986 47.8257C12.4619 47.7135 12.6903 47.5547 12.8877 47.3496C13.0851 47.1444 13.24 46.9082 13.3523 46.6411C13.4645 46.374 13.5187 46.0836 13.5187 45.7778C13.5187 45.472 13.4645 45.1778 13.3523 44.9068C13.24 44.6358 13.0851 44.3996 12.8838 44.1983ZM12.7058 46.6334C12.5703 46.885 12.3844 47.0824 12.1483 47.2257C11.9121 47.3689 11.6412 47.4386 11.3315 47.4386C11.1031 47.4386 10.894 47.396 10.7004 47.3147C10.5069 47.2334 10.3404 47.1173 10.2049 46.9702C10.0655 46.8231 9.95715 46.645 9.87973 46.4398C9.8023 46.2346 9.76359 46.0101 9.76359 45.7701C9.76359 45.4449 9.8294 45.1623 9.96489 44.9106C10.1004 44.6629 10.2823 44.4655 10.5185 44.3261C10.7546 44.1867 11.0218 44.1132 11.3315 44.1132C11.5637 44.1132 11.7767 44.1519 11.9663 44.2332C12.156 44.3145 12.3225 44.4306 12.4657 44.5777C12.609 44.7248 12.7174 44.9029 12.7909 45.1042C12.8684 45.3055 12.9071 45.5262 12.9071 45.7662C12.9071 46.0914 12.8413 46.3779 12.7058 46.6295V46.6334Z" fill="black"/>
<path d="M20.5025 43.6216H19.918V47.9381H20.3167H20.5025H22.6317V47.4038H20.5025V43.6216Z" fill="black"/>
<path d="M31.4967 46.3314C31.4967 46.5559 31.4502 46.7495 31.3573 46.9159C31.2644 47.0824 31.1366 47.2102 30.9779 47.3031C30.8192 47.396 30.6334 47.4386 30.4282 47.4386C30.223 47.4386 30.0333 47.3921 29.8707 47.3031C29.7081 47.2102 29.5765 47.0824 29.4836 46.9159C29.3868 46.7495 29.3404 46.552 29.3404 46.3236V43.6176H28.748V46.3352C28.748 46.6527 28.8216 46.9353 28.9687 47.1831C29.1158 47.4347 29.3171 47.6321 29.5688 47.7754C29.8204 47.9225 30.1069 47.9922 30.4282 47.9922C30.7495 47.9922 31.0321 47.9186 31.2799 47.7754C31.5276 47.6321 31.7251 47.4347 31.8722 47.1831C32.0193 46.9314 32.089 46.6527 32.089 46.3352V43.6099H31.4967V46.3236V46.3314Z" fill="black"/>
<path d="M38.2637 44.1558H39.7231V47.9381H40.3155V44.1558H41.7788V43.6216H38.2637V44.1558Z" fill="black"/>
<path d="M48.6583 43.6216H48.0737V47.9381H48.6583V43.6216Z" fill="black"/>
<path d="M58.7779 44.1983C58.5804 43.997 58.3482 43.8383 58.0849 43.726C57.8217 43.6138 57.5352 43.5596 57.2294 43.5596C56.9235 43.5596 56.6371 43.6138 56.3738 43.726C56.1106 43.8383 55.8822 43.997 55.6847 44.1983C55.4873 44.4035 55.3324 44.6358 55.2202 44.9029C55.1079 45.17 55.0537 45.4604 55.0537 45.7701C55.0537 46.0798 55.1079 46.3662 55.2202 46.6334C55.3324 46.9005 55.4873 47.1405 55.6886 47.3457C55.886 47.5509 56.1183 47.7096 56.3854 47.8257C56.6525 47.9419 56.939 47.9961 57.2449 47.9961C57.5507 47.9961 57.8294 47.938 58.0927 47.8257C58.3559 47.7135 58.5843 47.5547 58.7817 47.3496C58.9792 47.1444 59.134 46.9082 59.2463 46.6411C59.3586 46.374 59.4128 46.0836 59.4128 45.7778C59.4128 45.472 59.3586 45.1778 59.2463 44.9068C59.134 44.6358 58.9792 44.3996 58.7779 44.1983ZM58.5998 46.6334C58.4643 46.885 58.2785 47.0824 58.0423 47.2257C57.8062 47.3689 57.5352 47.4386 57.2255 47.4386C56.9971 47.4386 56.788 47.396 56.5945 47.3147C56.4009 47.2334 56.2345 47.1173 56.099 46.9702C55.9596 46.8231 55.8512 46.645 55.7738 46.4398C55.6963 46.2346 55.6576 46.0101 55.6576 45.7701C55.6576 45.4449 55.7234 45.1623 55.8589 44.9106C55.9944 44.6629 56.1764 44.4655 56.4125 44.3261C56.6487 44.1867 56.9158 44.1132 57.2255 44.1132C57.4578 44.1132 57.6707 44.1519 57.8604 44.2332C58.0501 44.3145 58.2165 44.4306 58.3598 44.5777C58.503 44.7248 58.6114 44.9029 58.685 45.1042C58.7624 45.3055 58.8011 45.5262 58.8011 45.7662C58.8011 46.0914 58.7353 46.3779 58.5998 46.6295V46.6334Z" fill="black"/>
<path d="M68.626 46.8154L66.2258 43.6216H65.8154V47.9381H66.4V44.7365L68.8002 47.9381H69.2105V43.6216H68.626V46.8154Z" fill="black"/>
<path d="M77.9867 45.8397C77.8628 45.7429 77.7273 45.6655 77.5764 45.6036C77.4254 45.5416 77.2783 45.4836 77.1234 45.4332C76.9724 45.3829 76.8331 45.3248 76.7092 45.2629C76.5853 45.201 76.4847 45.1235 76.4072 45.0345C76.3298 44.9455 76.2911 44.8293 76.2911 44.6822C76.2911 44.5003 76.3608 44.357 76.4963 44.2564C76.6318 44.1557 76.8176 44.1054 77.0499 44.1054C77.2396 44.1054 77.4099 44.1441 77.557 44.2177C77.7041 44.2912 77.8435 44.4035 77.9712 44.5545L78.37 44.1557C78.2306 43.9776 78.0448 43.8344 77.8241 43.7221C77.6035 43.6099 77.348 43.5557 77.0654 43.5557C76.8099 43.5557 76.5776 43.6021 76.3724 43.695C76.1672 43.7879 76.0046 43.9196 75.8885 44.0938C75.7685 44.2641 75.7104 44.4732 75.7104 44.717C75.7104 44.9416 75.7491 45.1235 75.8227 45.2668C75.8962 45.41 75.9969 45.5261 76.1246 45.6191C76.2524 45.712 76.3879 45.7855 76.5389 45.8475C76.6898 45.9094 76.8369 45.9636 76.9879 46.0139C77.1389 46.0643 77.2744 46.1223 77.3983 46.1843C77.5222 46.2501 77.6228 46.3314 77.7002 46.4282C77.7777 46.5249 77.8164 46.6566 77.8164 46.8192C77.8164 47.0127 77.739 47.1676 77.5841 47.2798C77.4293 47.3921 77.2241 47.4463 76.9647 47.4463C76.7053 47.4463 76.4847 47.396 76.3066 47.2992C76.1285 47.2024 75.9698 47.0592 75.8343 46.8656L75.4355 47.2643C75.6214 47.5005 75.8343 47.6824 76.0782 47.8063C76.3182 47.9302 76.6085 47.9922 76.9415 47.9922C77.3944 47.9922 77.7506 47.8838 78.0138 47.667C78.2771 47.4502 78.4087 47.1521 78.4087 46.7727C78.4087 46.5443 78.37 46.3546 78.2926 46.2036C78.2151 46.0526 78.1145 45.9288 77.9906 45.832L77.9867 45.8397Z" fill="black"/>
<path d="M85.1838 47.1831C85.0638 47.1831 84.967 47.2218 84.8896 47.2992C84.8161 47.3767 84.7773 47.4735 84.7773 47.5896C84.7773 47.7057 84.8161 47.7986 84.8896 47.8799C84.9632 47.9612 85.0599 47.9999 85.1838 47.9999C85.3077 47.9999 85.3967 47.9612 85.4742 47.8799C85.5516 47.7986 85.5903 47.7019 85.5903 47.5896C85.5903 47.4773 85.5516 47.3767 85.4742 47.2992C85.3967 47.2218 85.3 47.1831 85.1838 47.1831Z" fill="black"/>
<path d="M94.6298 47.307C94.4323 47.396 94.1962 47.4425 93.9252 47.4425C93.6968 47.4425 93.4878 47.4038 93.2981 47.3225C93.1084 47.2412 92.9419 47.1251 92.8025 46.9779C92.6632 46.827 92.5509 46.6528 92.4774 46.4476C92.4038 46.2424 92.3612 46.0217 92.3612 45.7817C92.3612 45.5417 92.3999 45.321 92.4774 45.1159C92.5548 44.9107 92.6632 44.7365 92.8025 44.5855C92.9419 44.4345 93.1084 44.3222 93.2981 44.241C93.4878 44.1597 93.6968 44.1209 93.9213 44.1209C94.173 44.1209 94.4014 44.1635 94.5988 44.2526C94.7962 44.3416 94.9666 44.4616 95.1021 44.6126L95.5047 44.21C95.3073 44.0125 95.0788 43.8538 94.8195 43.7377C94.564 43.6215 94.262 43.5635 93.9175 43.5635C93.6116 43.5635 93.3252 43.6215 93.058 43.7338C92.7909 43.85 92.5625 44.0048 92.369 44.2061C92.1754 44.4074 92.0244 44.6436 91.916 44.9107C91.8076 45.1778 91.7534 45.472 91.7534 45.7817C91.7534 46.0914 91.8076 46.3779 91.916 46.645C92.0244 46.9121 92.1754 47.1522 92.3728 47.3535C92.5703 47.5548 92.8025 47.7135 93.0658 47.8296C93.3329 47.9458 93.6194 48 93.9291 48C94.2659 48 94.5678 47.9419 94.835 47.8258C95.1021 47.7096 95.3344 47.5509 95.5357 47.3457L95.133 46.9431C94.9976 47.098 94.8272 47.218 94.6298 47.307Z" fill="black"/>
<path d="M104.738 47.9381H105.372L103.611 43.6216H103.189L101.416 47.9381H102.043L102.434 46.9625H104.347L104.738 47.9381ZM102.639 46.4515L103.394 44.5662L104.145 46.4515H102.639Z" fill="black"/>
</g>
<defs>
<clipPath id="clip0_126_1161">
<rect width="111.543" height="48" fill="white"/>
</clipPath>
</defs>
</svg>
