<svg width="112" height="48" viewBox="0 0 112 48" fill="none" xmlns="http://www.w3.org/2000/svg">
<g clip-path="url(#clip0_18_1238)">
<path d="M111.539 0H45.8013V37.0868H111.539V0Z" fill="#FED929"/>
<path d="M11.5558 34.1099C10.4021 34.4544 9.18654 34.6247 7.90902 34.6247C5.88821 34.6247 4.43261 34.1679 3.54609 33.2582C2.65957 32.3484 2.21437 30.8735 2.21437 28.8294V20.0532H0V16.6388H2.21437V11.7764H6.51149V16.6388H10.5763V20.0532H6.51149V28.2797C6.51149 29.3675 6.68183 30.107 7.01863 30.4941C7.35543 30.8812 7.83547 31.0786 8.45874 31.0786C9.24848 31.0786 10.0305 30.9161 10.8047 30.5947L11.5558 34.1099Z" fill="#020202"/>
<path d="M23.5492 34.1098V24.4858C23.5492 22.6431 23.3789 21.4237 23.0343 20.8236C22.6898 20.2236 22.0781 19.9255 21.2032 19.9255C19.9257 19.9255 18.3888 20.7694 16.5925 22.4573V34.1137H12.2954V9.31817H16.5925V18.9112C17.5023 18.0014 18.474 17.3124 19.5076 16.8478C20.5412 16.3833 21.5516 16.1471 22.5388 16.1471C24.4938 16.1471 25.8642 16.6968 26.6617 17.7963C27.4553 18.8957 27.8541 20.4481 27.8541 22.4573V34.1137H23.5569L23.5492 34.1098Z" fill="#020202"/>
<path d="M34.1949 26.5028C34.2723 28.0552 34.6517 29.174 35.3253 29.8514C36.0027 30.5289 37.0673 30.8657 38.5229 30.8657C39.3669 30.8657 40.1063 30.7612 40.745 30.5483C41.3838 30.3392 41.9413 29.9327 42.4174 29.3327L45.6151 31.6129C44.9144 32.6233 44.0085 33.3782 42.8936 33.8776C41.7787 34.377 40.2534 34.6286 38.3216 34.6286C35.4453 34.6286 33.3006 33.8737 31.8876 32.3639C30.4707 30.8541 29.7661 28.5739 29.7661 25.5195C29.7661 19.2712 32.565 16.1432 38.159 16.1432C40.6444 16.1432 42.5413 16.8439 43.8459 18.2492C45.1506 19.6545 45.8009 21.6985 45.8009 24.3852V26.4989H34.1949V26.5028ZM41.5387 23.5374C41.5387 20.8856 40.3773 19.5577 38.0584 19.5577C37.2919 19.5577 36.6647 19.6893 36.1769 19.9487C35.6892 20.2081 35.2982 20.5991 35.0039 21.114C34.7097 21.6288 34.4813 22.4379 34.311 23.5374H41.5387Z" fill="#020202"/>
<path d="M66.2876 34.1098H62.3738L58.4444 22.9877L54.4996 34.1098H50.5703L45.8086 16.6426H50.2722L52.9705 27.9003L56.8843 16.6426H60.1323L64.0771 27.7997L66.6748 16.6426H70.9719L66.2915 34.1098H66.2876Z" fill="#020202"/>
<path d="M75.4707 26.5028C75.5482 28.0552 75.9275 29.174 76.6011 29.8514C77.2786 30.5289 78.3432 30.8657 79.7988 30.8657C80.6428 30.8657 81.3822 30.7612 82.0209 30.5483C82.6597 30.3392 83.2172 29.9327 83.6933 29.3327L86.891 31.6129C86.1903 32.6233 85.2844 33.3782 84.1695 33.8776C83.0546 34.377 81.5293 34.6286 79.5975 34.6286C76.7212 34.6286 74.5765 33.8737 73.1635 32.3639C71.7466 30.8541 71.042 28.5739 71.042 25.5195C71.042 19.2712 73.8409 16.1432 79.4349 16.1432C81.9203 16.1432 83.8172 16.8439 85.1218 18.2492C86.4264 19.6545 87.0768 21.6985 87.0768 24.3852V26.4989H75.4707V26.5028ZM82.8145 23.5374C82.8145 20.8856 81.6532 19.5577 79.3343 19.5577C78.5677 19.5577 77.9406 19.6893 77.4528 19.9487C76.965 20.2081 76.574 20.5991 76.2798 21.114C75.9856 21.6288 75.7572 22.4379 75.5869 23.5374H82.8145Z" fill="#020202"/>
<path d="M105.349 25.2524C105.349 28.1481 104.742 30.436 103.526 32.1123C102.31 33.7885 100.576 34.6247 98.3229 34.6247C97.4364 34.6247 96.4647 34.4234 95.4156 34.0169C94.3665 33.6104 93.5303 33.0994 92.9109 32.4762L92.3263 34.1098H89.0474V9.31817H93.3445V18.044C94.9201 16.7781 96.6622 16.1471 98.5746 16.1471C100.917 16.1471 102.632 16.9562 103.719 18.5705C104.807 20.1849 105.353 22.4147 105.353 25.2562L105.349 25.2524ZM100.921 25.3182C100.921 23.5219 100.638 22.1708 100.073 21.2727C99.5075 20.3745 98.5978 19.9255 97.3435 19.9255C96.6428 19.9255 95.9382 20.0881 95.222 20.4171C94.5059 20.7462 93.8826 21.1488 93.3483 21.625V29.2669C93.8245 29.6772 94.4052 30.0411 95.0865 30.3586C95.7679 30.676 96.4338 30.8347 97.0764 30.8347C98.3074 30.8347 99.2559 30.3663 99.9256 29.4295C100.592 28.4926 100.924 27.1222 100.924 25.3259L100.921 25.3182Z" fill="#020202"/>
<path d="M2.55504 45.8398C2.43116 45.7431 2.29567 45.6656 2.14469 45.6037C1.99371 45.5418 1.8466 45.4837 1.69175 45.4334C1.54077 45.383 1.4014 45.325 1.27752 45.263C1.15364 45.2011 1.05299 45.1237 0.975562 45.0346C0.898136 44.9456 0.859423 44.8294 0.859423 44.6823C0.859423 44.5004 0.929106 44.3571 1.0646 44.2565C1.2001 44.1558 1.38592 44.1055 1.61819 44.1055C1.80789 44.1055 1.97822 44.1442 2.12533 44.2178C2.27244 44.2913 2.41181 44.4036 2.53956 44.5546L2.9383 44.1558C2.79893 43.9778 2.61311 43.8345 2.39245 43.7223C2.17179 43.61 1.91628 43.5558 1.63368 43.5558C1.37817 43.5558 1.1459 43.6022 0.94072 43.6952C0.735543 43.7881 0.572949 43.9197 0.456811 44.0939C0.336801 44.2642 0.278732 44.4733 0.278732 44.7172C0.278732 44.9417 0.317445 45.1237 0.390999 45.2669C0.464553 45.4101 0.565206 45.5263 0.692958 45.6192C0.820711 45.7121 0.956205 45.7856 1.10719 45.8476C1.25816 45.9095 1.40527 45.9637 1.55625 46.014C1.70723 46.0644 1.84273 46.1224 1.96661 46.1844C2.09049 46.2502 2.19114 46.3315 2.26857 46.4283C2.34599 46.5251 2.38471 46.6567 2.38471 46.8193C2.38471 47.0128 2.30728 47.1677 2.15243 47.28C1.99758 47.3922 1.7924 47.4464 1.53303 47.4464C1.27365 47.4464 1.05299 47.3961 0.874908 47.2993C0.69683 47.2025 0.538107 47.0593 0.402613 46.8657L0 47.2722C0.185821 47.5084 0.398741 47.6903 0.642632 47.8142C0.882651 47.9381 1.173 48 1.50593 48C1.95887 48 2.31502 47.8916 2.57827 47.6748C2.84152 47.458 2.97314 47.1599 2.97314 46.7806C2.97314 46.5522 2.93443 46.3625 2.857 46.2115C2.77958 46.0605 2.67892 45.9366 2.55504 45.8398Z" fill="#231F20"/>
<path d="M12.8838 44.1984C12.6864 43.9971 12.4541 43.8384 12.1909 43.7261C11.9276 43.6138 11.6412 43.5596 11.3353 43.5596C11.0295 43.5596 10.743 43.6138 10.4798 43.7261C10.2165 43.8384 9.98812 43.9971 9.79069 44.1984C9.59325 44.4036 9.4384 44.6359 9.32613 44.903C9.21387 45.1701 9.15967 45.4604 9.15967 45.7701C9.15967 46.0798 9.21387 46.3663 9.32613 46.6334C9.4384 46.9006 9.59325 47.1406 9.79456 47.3458C9.99199 47.5509 10.2243 47.7097 10.4914 47.8258C10.7585 47.9419 11.045 47.9961 11.3508 47.9961C11.6566 47.9961 11.9354 47.9381 12.1986 47.8258C12.4619 47.7135 12.6903 47.5548 12.8877 47.3496C13.0851 47.1444 13.24 46.9083 13.3523 46.6412C13.4645 46.3741 13.5187 46.0837 13.5187 45.7779C13.5187 45.4721 13.4645 45.1778 13.3523 44.9068C13.24 44.6359 13.0851 44.3997 12.8838 44.1984ZM12.7058 46.6334C12.5703 46.8851 12.3844 47.0825 12.1483 47.2257C11.9121 47.369 11.6412 47.4387 11.3315 47.4387C11.103 47.4387 10.894 47.3961 10.7004 47.3148C10.5069 47.2335 10.3404 47.1173 10.2049 46.9702C10.0655 46.8231 9.95715 46.6451 9.87973 46.4399C9.8023 46.2347 9.76359 46.0102 9.76359 45.7701C9.76359 45.445 9.8294 45.1624 9.96489 44.9107C10.1004 44.663 10.2823 44.4655 10.5185 44.3262C10.7546 44.1868 11.0218 44.1132 11.3315 44.1132C11.5637 44.1132 11.7767 44.1519 11.9663 44.2332C12.156 44.3145 12.3225 44.4307 12.4657 44.5778C12.609 44.7249 12.7174 44.903 12.7909 45.1043C12.8684 45.3056 12.9071 45.5263 12.9071 45.7663C12.9071 46.0915 12.8413 46.3779 12.7058 46.6296V46.6334Z" fill="#231F20"/>
<path d="M20.502 43.6216H19.9175V47.9381H20.3162H20.502H22.6312V47.4038H20.502V43.6216Z" fill="#231F20"/>
<path d="M31.4967 46.3315C31.4967 46.556 31.4502 46.7496 31.3573 46.916C31.2644 47.0825 31.1366 47.2103 30.9779 47.3032C30.8192 47.3961 30.6334 47.4387 30.4282 47.4387C30.223 47.4387 30.0333 47.3922 29.8707 47.3032C29.7081 47.2103 29.5765 47.0825 29.4836 46.916C29.3868 46.7496 29.3404 46.5521 29.3404 46.3237V43.6177H28.748V46.3354C28.748 46.6528 28.8216 46.9354 28.9687 47.1832C29.1158 47.4348 29.3171 47.6322 29.5688 47.7755C29.8204 47.9226 30.1069 47.9923 30.4282 47.9923C30.7495 47.9923 31.0321 47.9187 31.2799 47.7755C31.5276 47.6322 31.7251 47.4348 31.8722 47.1832C32.0193 46.9315 32.089 46.6528 32.089 46.3354V43.61H31.4967V46.3237V46.3315Z" fill="#231F20"/>
<path d="M38.2637 44.1558H39.7231V47.9381H40.3155V44.1558H41.7788V43.6216H38.2637V44.1558Z" fill="#231F20"/>
<path d="M48.6583 43.6216H48.0737V47.9381H48.6583V43.6216Z" fill="#231F20"/>
<path d="M58.7774 44.1984C58.58 43.9971 58.3477 43.8384 58.0844 43.7261C57.8212 43.6138 57.5347 43.5596 57.2289 43.5596C56.923 43.5596 56.6366 43.6138 56.3733 43.7261C56.1101 43.8384 55.8817 43.9971 55.6842 44.1984C55.4868 44.4036 55.332 44.6359 55.2197 44.903C55.1074 45.1701 55.0532 45.4604 55.0532 45.7701C55.0532 46.0798 55.1074 46.3663 55.2197 46.6334C55.332 46.9006 55.4868 47.1406 55.6881 47.3458C55.8855 47.5509 56.1178 47.7097 56.3849 47.8258C56.6521 47.9419 56.9385 47.9961 57.2444 47.9961C57.5502 47.9961 57.8289 47.9381 58.0922 47.8258C58.3554 47.7135 58.5838 47.5548 58.7813 47.3496C58.9787 47.1444 59.1335 46.9083 59.2458 46.6412C59.3581 46.3741 59.4123 46.0837 59.4123 45.7779C59.4123 45.4721 59.3581 45.1778 59.2458 44.9068C59.1335 44.6359 58.9787 44.3997 58.7774 44.1984ZM58.5993 46.6334C58.4638 46.8851 58.278 47.0825 58.0418 47.2257C57.8057 47.369 57.5347 47.4387 57.225 47.4387C56.9966 47.4387 56.7876 47.3961 56.594 47.3148C56.4004 47.2335 56.234 47.1173 56.0985 46.9702C55.9591 46.8231 55.8507 46.6451 55.7733 46.4399C55.6959 46.2347 55.6571 46.0102 55.6571 45.7701C55.6571 45.445 55.7229 45.1624 55.8584 44.9107C55.9939 44.663 56.1759 44.4655 56.412 44.3262C56.6482 44.1868 56.9153 44.1132 57.225 44.1132C57.4573 44.1132 57.6702 44.1519 57.8599 44.2332C58.0496 44.3145 58.2161 44.4307 58.3593 44.5778C58.5025 44.7249 58.6109 44.903 58.6845 45.1043C58.7619 45.3056 58.8006 45.5263 58.8006 45.7663C58.8006 46.0915 58.7348 46.3779 58.5993 46.6296V46.6334Z" fill="#231F20"/>
<path d="M68.626 46.8154L66.2258 43.6216H65.8154V47.9381H66.4V44.7365L68.8002 47.9381H69.2105V43.6216H68.626V46.8154Z" fill="#231F20"/>
<path d="M77.9867 45.8398C77.8628 45.743 77.7273 45.6656 77.5764 45.6037C77.4254 45.5417 77.2783 45.4837 77.1234 45.4333C76.9724 45.383 76.8331 45.3249 76.7092 45.263C76.5853 45.2011 76.4847 45.1236 76.4072 45.0346C76.3298 44.9456 76.2911 44.8294 76.2911 44.6823C76.2911 44.5004 76.3608 44.3571 76.4963 44.2565C76.6318 44.1558 76.8176 44.1055 77.0499 44.1055C77.2396 44.1055 77.4099 44.1442 77.557 44.2178C77.7041 44.2913 77.8435 44.4036 77.9712 44.5546L78.37 44.1558C78.2306 43.9777 78.0448 43.8345 77.8241 43.7222C77.6035 43.61 77.348 43.5558 77.0654 43.5558C76.8099 43.5558 76.5776 43.6022 76.3724 43.6951C76.1672 43.788 76.0046 43.9197 75.8885 44.0939C75.7685 44.2642 75.7104 44.4733 75.7104 44.7172C75.7104 44.9417 75.7491 45.1236 75.8227 45.2669C75.8962 45.4101 75.9969 45.5263 76.1246 45.6192C76.2524 45.7121 76.3879 45.7856 76.5389 45.8476C76.6898 45.9095 76.8369 45.9637 76.9879 46.014C77.1389 46.0644 77.2744 46.1224 77.3983 46.1844C77.5222 46.2502 77.6228 46.3315 77.7002 46.4283C77.7777 46.525 77.8164 46.6567 77.8164 46.8193C77.8164 47.0128 77.739 47.1677 77.5841 47.2799C77.4293 47.3922 77.2241 47.4464 76.9647 47.4464C76.7053 47.4464 76.4847 47.3961 76.3066 47.2993C76.1285 47.2025 75.9698 47.0593 75.8343 46.8657L75.4355 47.2645C75.6214 47.5006 75.8343 47.6826 76.0782 47.8064C76.3182 47.9303 76.6085 47.9923 76.9415 47.9923C77.3944 47.9923 77.7506 47.8839 78.0138 47.6671C78.2771 47.4503 78.4087 47.1522 78.4087 46.7728C78.4087 46.5444 78.37 46.3547 78.2926 46.2037C78.2151 46.0527 78.1145 45.9289 77.9906 45.8321L77.9867 45.8398Z" fill="#231F20"/>
<path d="M85.1838 47.1832C85.0638 47.1832 84.967 47.2219 84.8896 47.2993C84.8161 47.3767 84.7773 47.4735 84.7773 47.5896C84.7773 47.7058 84.8161 47.7987 84.8896 47.88C84.9632 47.9613 85.0599 48 85.1838 48C85.3077 48 85.3967 47.9613 85.4742 47.88C85.5516 47.7987 85.5903 47.7019 85.5903 47.5896C85.5903 47.4774 85.5516 47.3767 85.4742 47.2993C85.3967 47.2219 85.3 47.1832 85.1838 47.1832Z" fill="#231F20"/>
<path d="M94.6293 47.307C94.4319 47.3961 94.1957 47.4425 93.9247 47.4425C93.6963 47.4425 93.4873 47.4038 93.2976 47.3225C93.1079 47.2412 92.9414 47.1251 92.802 46.978C92.6627 46.827 92.5504 46.6528 92.4769 46.4476C92.4033 46.2424 92.3607 46.0218 92.3607 45.7818C92.3607 45.5417 92.3994 45.3211 92.4769 45.1159C92.5543 44.9107 92.6627 44.7365 92.802 44.5855C92.9414 44.4346 93.1079 44.3223 93.2976 44.241C93.4873 44.1597 93.6963 44.121 93.9208 44.121C94.1725 44.121 94.4009 44.1636 94.5983 44.2526C94.7958 44.3416 94.9661 44.4616 95.1016 44.6126L95.5042 44.21C95.3068 44.0126 95.0784 43.8539 94.819 43.7377C94.5635 43.6216 94.2615 43.5635 93.917 43.5635C93.6111 43.5635 93.3247 43.6216 93.0576 43.7339C92.7904 43.85 92.562 44.0048 92.3685 44.2061C92.1749 44.4075 92.0239 44.6436 91.9155 44.9107C91.8071 45.1778 91.7529 45.4721 91.7529 45.7818C91.7529 46.0915 91.8071 46.3779 91.9155 46.6451C92.0239 46.9122 92.1749 47.1522 92.3723 47.3535C92.5698 47.5548 92.802 47.7135 93.0653 47.8297C93.3324 47.9458 93.6189 48 93.9286 48C94.2654 48 94.5674 47.9419 94.8345 47.8258C95.1016 47.7097 95.3339 47.5509 95.5352 47.3458L95.1326 46.9431C94.9971 47.098 94.8267 47.218 94.6293 47.307Z" fill="#231F20"/>
<path d="M104.738 47.9381H105.372L103.611 43.6216H103.189L101.416 47.9381H102.043L102.434 46.9625H104.347L104.738 47.9381ZM102.639 46.4515L103.394 44.5662L104.145 46.4515H102.639Z" fill="#231F20"/>
</g>
<defs>
<clipPath id="clip0_18_1238">
<rect width="111.543" height="48" fill="white"/>
</clipPath>
</defs>
</svg>
