<svg width="687" height="386" viewBox="0 0 687 386" fill="none" xmlns="http://www.w3.org/2000/svg">
<circle cx="320" cy="185" r="185" fill="#FED929" fill-opacity="0.86"/>
<path d="M38.4844 240.516V217.594C36.5469 219.344 34.3281 220.766 31.8281 221.859C29.3281 222.922 26.625 223.453 23.7188 223.453C20.3438 223.453 17.4531 222.812 15.0469 221.531C12.6719 220.25 10.7188 218.484 9.1875 216.234C7.6875 213.953 6.59375 211.25 5.90625 208.125C5.21875 204.969 4.875 201.531 4.875 197.812C4.875 195.562 5.01562 193.344 5.29688 191.156C5.60938 188.969 6.09375 186.906 6.75 184.969C7.40625 183 8.25 181.188 9.28125 179.531C10.3438 177.875 11.6094 176.453 13.0781 175.266C14.5469 174.047 16.25 173.109 18.1875 172.453C20.125 171.766 22.3125 171.422 24.75 171.422C26.1562 171.422 27.5312 171.578 28.875 171.891C30.2188 172.203 31.5156 172.625 32.7656 173.156C34.0156 173.688 35.1719 174.297 36.2344 174.984C37.3281 175.672 38.3125 176.406 39.1875 177.188L39.9375 172.828H48.5625V240.516H38.4844ZM38.4844 185.25C37.7031 184.562 36.8281 183.922 35.8594 183.328C34.9219 182.703 33.9375 182.172 32.9062 181.734C31.875 181.297 30.8281 180.953 29.7656 180.703C28.7031 180.453 27.6719 180.328 26.6719 180.328C25.1406 180.328 23.6875 180.656 22.3125 181.312C20.9375 181.969 19.7188 183 18.6562 184.406C17.625 185.812 16.7969 187.609 16.1719 189.797C15.5781 191.984 15.2812 194.594 15.2812 197.625C15.2812 203.219 16.1562 207.438 17.9062 210.281C19.6875 213.094 22.4219 214.5 26.1094 214.5C27.2031 214.5 28.3125 214.359 29.4375 214.078C30.5625 213.766 31.6562 213.359 32.7188 212.859C33.8125 212.359 34.8438 211.781 35.8125 211.125C36.7812 210.438 37.6719 209.703 38.4844 208.922V185.25ZM89.4656 222V215.203C88.3719 216.297 87.1688 217.344 85.8563 218.344C84.575 219.344 83.2 220.219 81.7313 220.969C80.2938 221.719 78.7938 222.312 77.2313 222.75C75.7 223.219 74.1531 223.453 72.5906 223.453C69.8406 223.453 67.5438 223.062 65.7 222.281C63.8563 221.5 62.3719 220.359 61.2469 218.859C60.1531 217.328 59.3719 215.469 58.9031 213.281C58.4344 211.062 58.2 208.531 58.2 205.688V172.828H68.2781V200.859C68.2781 203.328 68.3563 205.422 68.5125 207.141C68.6688 208.828 68.9969 210.203 69.4969 211.266C69.9969 212.297 70.7156 213.047 71.6531 213.516C72.5906 213.984 73.825 214.219 75.3563 214.219C76.3875 214.219 77.4813 214.016 78.6375 213.609C79.825 213.203 81.0281 212.656 82.2469 211.969C83.4969 211.281 84.7313 210.484 85.95 209.578C87.1688 208.641 88.3406 207.656 89.4656 206.625V172.828H99.5438V222H89.4656ZM137.963 222V216.422C135.65 218.484 133.197 220.172 130.603 221.484C128.041 222.797 125.244 223.453 122.213 223.453C119.713 223.453 117.494 223.078 115.556 222.328C113.619 221.578 111.994 220.531 110.681 219.188C109.369 217.812 108.369 216.203 107.681 214.359C106.994 212.484 106.65 210.422 106.65 208.172C106.65 205.203 107.134 202.719 108.103 200.719C109.103 198.719 110.463 197.094 112.181 195.844C113.931 194.562 115.994 193.609 118.369 192.984C120.775 192.328 123.4 191.859 126.244 191.578L137.494 190.5V188.203C137.494 186.578 137.244 185.234 136.744 184.172C136.275 183.078 135.572 182.203 134.634 181.547C133.728 180.891 132.588 180.438 131.213 180.188C129.869 179.906 128.338 179.766 126.619 179.766C124.963 179.766 123.509 179.922 122.259 180.234C121.041 180.547 119.978 180.953 119.072 181.453C118.166 181.953 117.416 182.531 116.822 183.188C116.228 183.812 115.759 184.438 115.416 185.062L107.447 179.953C108.041 178.891 108.853 177.859 109.884 176.859C110.947 175.828 112.259 174.922 113.822 174.141C115.384 173.328 117.228 172.672 119.353 172.172C121.509 171.672 123.994 171.422 126.806 171.422C130.244 171.422 133.259 171.703 135.853 172.266C138.447 172.828 140.603 173.766 142.322 175.078C144.072 176.391 145.384 178.156 146.259 180.375C147.134 182.562 147.572 185.297 147.572 188.578V222H137.963ZM137.494 198.094L130.463 198.75C128.306 198.938 126.384 199.234 124.697 199.641C123.041 200.047 121.634 200.609 120.478 201.328C119.353 202.047 118.494 202.953 117.9 204.047C117.306 205.109 117.009 206.422 117.009 207.984C117.009 210.578 117.697 212.422 119.072 213.516C120.447 214.578 122.384 215.109 124.884 215.109C125.853 215.109 126.853 214.938 127.884 214.594C128.947 214.25 130.009 213.797 131.072 213.234C132.166 212.672 133.244 212.016 134.306 211.266C135.4 210.484 136.463 209.672 137.494 208.828V198.094ZM157.35 222V152.203H167.428V222H157.35ZM188.691 159.891C188.691 161.953 188.191 163.391 187.191 164.203C186.222 164.984 184.706 165.375 182.644 165.375C180.394 165.375 178.831 164.906 177.956 163.969C177.113 163.031 176.691 161.672 176.691 159.891C176.691 157.953 177.144 156.562 178.05 155.719C178.956 154.844 180.488 154.406 182.644 154.406C184.8 154.406 186.347 154.828 187.284 155.672C188.222 156.516 188.691 157.922 188.691 159.891ZM177.675 222V172.828H187.753V222H177.675ZM223.547 222C222.141 222.438 220.547 222.781 218.766 223.031C217.016 223.312 215.344 223.453 213.75 223.453C211.062 223.453 208.766 223.125 206.859 222.469C204.984 221.844 203.438 220.875 202.219 219.562C201.031 218.219 200.156 216.516 199.594 214.453C199.031 212.391 198.75 209.953 198.75 207.141V181.031H192.141V172.828H198.75V159.141H208.828V172.828H220.734V181.031H208.828V205.594C208.828 207.344 208.922 208.828 209.109 210.047C209.328 211.234 209.672 212.203 210.141 212.953C210.609 213.703 211.219 214.25 211.969 214.594C212.75 214.938 213.688 215.109 214.781 215.109C215.875 215.109 217.031 214.984 218.25 214.734C219.469 214.453 220.531 214.125 221.438 213.75L223.547 222ZM221.653 230.531C222.747 230.969 223.903 231.297 225.122 231.516C226.372 231.766 227.575 231.891 228.731 231.891C229.669 231.891 230.544 231.719 231.356 231.375C232.2 231.062 232.997 230.531 233.747 229.781C234.528 229.062 235.262 228.109 235.95 226.922C236.669 225.734 237.372 224.281 238.059 222.562L239.512 219.047L221.653 172.828H232.294L244.856 206.531L257.653 172.828H268.012L246.872 225.562C245.778 228.25 244.669 230.531 243.544 232.406C242.419 234.312 241.153 235.859 239.747 237.047C238.341 238.266 236.762 239.141 235.012 239.672C233.262 240.234 231.247 240.516 228.966 240.516C227.403 240.516 225.762 240.391 224.044 240.141C222.325 239.891 220.762 239.547 219.356 239.109L221.653 230.531Z" fill="white"/>
<path d="M357.891 128.359C357.891 131.078 357.359 133.391 356.297 135.297C355.266 137.203 353.859 138.766 352.078 139.984C350.328 141.203 348.297 142.078 345.984 142.609C343.672 143.172 341.25 143.453 338.719 143.453C336.156 143.453 333.828 143.234 331.734 142.797C329.672 142.359 327.828 141.766 326.203 141.016C324.578 140.234 323.172 139.312 321.984 138.25C320.828 137.188 319.875 136.031 319.125 134.781L326.812 129.625C328.156 131.594 329.812 133 331.781 133.844C333.75 134.688 335.969 135.109 338.438 135.109C339.656 135.109 340.844 135.016 342 134.828C343.156 134.641 344.172 134.312 345.047 133.844C345.953 133.344 346.672 132.688 347.203 131.875C347.766 131.062 348.047 130.047 348.047 128.828C348.047 127.891 347.844 127.094 347.438 126.438C347.031 125.781 346.391 125.203 345.516 124.703C344.641 124.172 343.5 123.688 342.094 123.25C340.719 122.781 339.047 122.312 337.078 121.844C334.859 121.281 332.734 120.641 330.703 119.922C328.672 119.203 326.875 118.266 325.312 117.109C323.781 115.922 322.547 114.453 321.609 112.703C320.672 110.922 320.203 108.719 320.203 106.094C320.203 104 320.594 102.062 321.375 100.281C322.156 98.5 323.328 96.9531 324.891 95.6406C326.484 94.3281 328.438 93.2969 330.75 92.5469C333.094 91.7969 335.812 91.4219 338.906 91.4219C341.062 91.4219 343.078 91.625 344.953 92.0312C346.859 92.4375 348.578 93.0156 350.109 93.7656C351.672 94.5156 353.047 95.4219 354.234 96.4844C355.422 97.5156 356.391 98.6719 357.141 99.9531L349.453 105.156C348.984 104.469 348.422 103.797 347.766 103.141C347.109 102.484 346.328 101.906 345.422 101.406C344.547 100.906 343.547 100.516 342.422 100.234C341.328 99.9219 340.094 99.7656 338.719 99.7656C336.094 99.7656 334 100.281 332.438 101.312C330.875 102.312 330.094 103.781 330.094 105.719C330.094 106.625 330.25 107.391 330.562 108.016C330.906 108.641 331.438 109.203 332.156 109.703C332.906 110.203 333.875 110.656 335.062 111.062C336.25 111.438 337.688 111.828 339.375 112.234C342.219 112.953 344.781 113.719 347.062 114.531C349.375 115.344 351.328 116.344 352.922 117.531C354.516 118.719 355.734 120.188 356.578 121.938C357.453 123.656 357.891 125.797 357.891 128.359ZM422.419 142V113.031C422.419 110.594 422.341 108.578 422.184 106.984C422.059 105.391 421.778 104.125 421.341 103.188C420.903 102.25 420.278 101.594 419.466 101.219C418.653 100.812 417.559 100.609 416.184 100.609C415.184 100.609 414.153 100.828 413.091 101.266C412.028 101.672 410.95 102.234 409.856 102.953C408.794 103.641 407.731 104.453 406.669 105.391C405.638 106.297 404.653 107.234 403.716 108.203V142H393.638V113.031C393.638 110.531 393.559 108.484 393.403 106.891C393.247 105.266 392.95 104 392.513 103.094C392.075 102.156 391.45 101.516 390.638 101.172C389.856 100.797 388.809 100.609 387.497 100.609C386.434 100.609 385.341 100.844 384.216 101.312C383.091 101.75 381.981 102.344 380.888 103.094C379.794 103.812 378.731 104.625 377.7 105.531C376.7 106.438 375.778 107.328 374.934 108.203V142H364.856V92.8281H374.934V99.6719C375.997 98.4844 377.122 97.3906 378.309 96.3906C379.497 95.3906 380.716 94.5312 381.966 93.8125C383.247 93.0625 384.575 92.4844 385.95 92.0781C387.325 91.6406 388.763 91.4219 390.263 91.4219C393.981 91.4219 396.825 92.1719 398.794 93.6719C400.763 95.1406 402.091 97.3906 402.778 100.422C404.122 99.0156 405.434 97.7656 406.716 96.6719C407.997 95.5469 409.294 94.6094 410.606 93.8594C411.95 93.0781 413.341 92.4844 414.778 92.0781C416.216 91.6406 417.747 91.4219 419.372 91.4219C421.997 91.4219 424.153 91.8438 425.841 92.6875C427.528 93.5 428.872 94.6875 429.872 96.25C430.872 97.7812 431.559 99.6406 431.934 101.828C432.341 104.016 432.544 106.469 432.544 109.188V142H422.419ZM484.884 117.531C484.884 121.531 484.447 125.125 483.572 128.312C482.728 131.5 481.384 134.219 479.541 136.469C477.728 138.719 475.4 140.453 472.556 141.672C469.713 142.859 466.306 143.453 462.338 143.453C458.338 143.453 454.9 142.844 452.025 141.625C449.15 140.406 446.791 138.672 444.947 136.422C443.134 134.172 441.791 131.453 440.916 128.266C440.072 125.078 439.65 121.5 439.65 117.531C439.65 113.5 440.088 109.875 440.963 106.656C441.838 103.438 443.181 100.703 444.994 98.4531C446.838 96.1719 449.181 94.4375 452.025 93.25C454.9 92.0312 458.338 91.4219 462.338 91.4219C466.306 91.4219 469.713 92.0312 472.556 93.25C475.4 94.4375 477.728 96.1719 479.541 98.4531C481.384 100.703 482.728 103.438 483.572 106.656C484.447 109.875 484.884 113.5 484.884 117.531ZM474.431 117.531C474.431 111.688 473.478 107.344 471.572 104.5C469.697 101.656 466.619 100.234 462.338 100.234C458.056 100.234 454.931 101.656 452.963 104.5C451.025 107.344 450.056 111.688 450.056 117.531C450.056 123.219 451.009 127.5 452.916 130.375C454.853 133.25 457.994 134.688 462.338 134.688C466.556 134.688 469.619 133.25 471.525 130.375C473.463 127.5 474.431 123.219 474.431 117.531ZM535.116 117.531C535.116 121.531 534.678 125.125 533.803 128.312C532.959 131.5 531.616 134.219 529.772 136.469C527.959 138.719 525.631 140.453 522.788 141.672C519.944 142.859 516.538 143.453 512.569 143.453C508.569 143.453 505.131 142.844 502.256 141.625C499.381 140.406 497.022 138.672 495.178 136.422C493.366 134.172 492.022 131.453 491.147 128.266C490.303 125.078 489.881 121.5 489.881 117.531C489.881 113.5 490.319 109.875 491.194 106.656C492.069 103.438 493.413 100.703 495.225 98.4531C497.069 96.1719 499.413 94.4375 502.256 93.25C505.131 92.0312 508.569 91.4219 512.569 91.4219C516.538 91.4219 519.944 92.0312 522.788 93.25C525.631 94.4375 527.959 96.1719 529.772 98.4531C531.616 100.703 532.959 103.438 533.803 106.656C534.678 109.875 535.116 113.5 535.116 117.531ZM524.663 117.531C524.663 111.688 523.709 107.344 521.803 104.5C519.928 101.656 516.85 100.234 512.569 100.234C508.288 100.234 505.163 101.656 503.194 104.5C501.256 107.344 500.288 111.688 500.288 117.531C500.288 123.219 501.241 127.5 503.147 130.375C505.084 133.25 508.225 134.688 512.569 134.688C516.788 134.688 519.85 133.25 521.756 130.375C523.694 127.5 524.663 123.219 524.663 117.531ZM568.472 142C567.066 142.438 565.472 142.781 563.691 143.031C561.941 143.312 560.269 143.453 558.675 143.453C555.988 143.453 553.691 143.125 551.784 142.469C549.909 141.844 548.363 140.875 547.144 139.562C545.956 138.219 545.081 136.516 544.519 134.453C543.956 132.391 543.675 129.953 543.675 127.141V101.031H537.066V92.8281H543.675V79.1406H553.753V92.8281H565.659V101.031H553.753V125.594C553.753 127.344 553.847 128.828 554.034 130.047C554.253 131.234 554.597 132.203 555.066 132.953C555.534 133.703 556.144 134.25 556.894 134.594C557.675 134.938 558.613 135.109 559.706 135.109C560.8 135.109 561.956 134.984 563.175 134.734C564.394 134.453 565.456 134.125 566.363 133.75L568.472 142ZM603.516 142V113.969C603.516 111.5 603.422 109.422 603.234 107.734C603.078 106.016 602.734 104.641 602.203 103.609C601.703 102.547 600.984 101.781 600.047 101.312C599.109 100.844 597.875 100.609 596.344 100.609C595.312 100.609 594.203 100.812 593.016 101.219C591.859 101.625 590.672 102.188 589.453 102.906C588.266 103.594 587.062 104.406 585.844 105.344C584.625 106.25 583.453 107.203 582.328 108.203V142H572.25V72.2031H582.328V99.6719C583.391 98.6094 584.578 97.5781 585.891 96.5781C587.203 95.5781 588.578 94.7031 590.016 93.9531C591.484 93.1719 592.984 92.5625 594.516 92.125C596.078 91.6562 597.641 91.4219 599.203 91.4219C601.922 91.4219 604.203 91.8125 606.047 92.5938C607.891 93.375 609.359 94.5312 610.453 96.0625C611.578 97.5625 612.375 99.4219 612.844 101.641C613.344 103.828 613.594 106.344 613.594 109.188V142H603.516ZM623.419 142V72.2031H633.497V142H623.419ZM638.072 150.531C639.166 150.969 640.322 151.297 641.541 151.516C642.791 151.766 643.994 151.891 645.15 151.891C646.087 151.891 646.962 151.719 647.775 151.375C648.619 151.062 649.416 150.531 650.166 149.781C650.947 149.062 651.681 148.109 652.369 146.922C653.087 145.734 653.791 144.281 654.478 142.562L655.931 139.047L638.072 92.8281H648.712L661.275 126.531L674.072 92.8281H684.431L663.291 145.562C662.197 148.25 661.087 150.531 659.962 152.406C658.837 154.312 657.572 155.859 656.166 157.047C654.759 158.266 653.181 159.141 651.431 159.672C649.681 160.234 647.666 160.516 645.384 160.516C643.822 160.516 642.181 160.391 640.462 160.141C638.744 159.891 637.181 159.547 635.775 159.109L638.072 150.531Z" fill="white"/>
<path d="M220.281 344.547C220.312 347.016 220.562 349.203 221.031 351.109C221.531 352.984 222.297 354.562 223.328 355.844C224.359 357.094 225.688 358.047 227.312 358.703C228.969 359.359 231 359.688 233.406 359.688C235.656 359.688 237.641 359.312 239.359 358.562C241.109 357.781 242.719 356.469 244.188 354.625L251.922 359.875C250.984 361.281 249.938 362.516 248.781 363.578C247.625 364.641 246.281 365.531 244.75 366.25C243.219 366.969 241.469 367.516 239.5 367.891C237.562 368.266 235.344 368.453 232.844 368.453C225 368.453 219.203 366.297 215.453 361.984C211.734 357.641 209.875 351.25 209.875 342.812C209.875 338.844 210.266 335.25 211.047 332.031C211.859 328.781 213.141 326 214.891 323.688C216.672 321.375 218.984 319.594 221.828 318.344C224.672 317.062 228.156 316.422 232.281 316.422C235.938 316.422 239.047 316.969 241.609 318.062C244.203 319.156 246.312 320.703 247.938 322.703C249.562 324.703 250.75 327.109 251.5 329.922C252.25 332.734 252.625 335.844 252.625 339.25V344.547H220.281ZM242.641 337.141C242.641 333.047 241.781 329.938 240.062 327.812C238.344 325.656 235.641 324.578 231.953 324.578C230.078 324.578 228.469 324.859 227.125 325.422C225.812 325.953 224.703 326.75 223.797 327.812C222.922 328.875 222.219 330.188 221.688 331.75C221.156 333.312 220.75 335.109 220.469 337.141H242.641ZM281.013 367H271.45L254.153 317.828H264.606L276.513 353.359L288.231 317.828H298.497L281.013 367ZM310.338 344.547C310.369 347.016 310.619 349.203 311.088 351.109C311.588 352.984 312.353 354.562 313.384 355.844C314.416 357.094 315.744 358.047 317.369 358.703C319.025 359.359 321.056 359.688 323.463 359.688C325.713 359.688 327.697 359.312 329.416 358.562C331.166 357.781 332.775 356.469 334.244 354.625L341.978 359.875C341.041 361.281 339.994 362.516 338.838 363.578C337.681 364.641 336.338 365.531 334.806 366.25C333.275 366.969 331.525 367.516 329.556 367.891C327.619 368.266 325.4 368.453 322.9 368.453C315.056 368.453 309.259 366.297 305.509 361.984C301.791 357.641 299.931 351.25 299.931 342.812C299.931 338.844 300.322 335.25 301.103 332.031C301.916 328.781 303.197 326 304.947 323.688C306.728 321.375 309.041 319.594 311.884 318.344C314.728 317.062 318.213 316.422 322.338 316.422C325.994 316.422 329.103 316.969 331.666 318.062C334.259 319.156 336.369 320.703 337.994 322.703C339.619 324.703 340.806 327.109 341.556 329.922C342.306 332.734 342.681 335.844 342.681 339.25V344.547H310.338ZM332.697 337.141C332.697 333.047 331.838 329.938 330.119 327.812C328.4 325.656 325.697 324.578 322.009 324.578C320.134 324.578 318.525 324.859 317.181 325.422C315.869 325.953 314.759 326.75 313.853 327.812C312.978 328.875 312.275 330.188 311.744 331.75C311.213 333.312 310.806 335.109 310.525 337.141H332.697ZM377.913 327.719C377.413 327.531 376.756 327.359 375.944 327.203C375.163 327.047 374.35 326.969 373.506 326.969C372.131 326.969 370.834 327.156 369.616 327.531C368.397 327.906 367.225 328.422 366.1 329.078C365.006 329.703 363.944 330.453 362.913 331.328C361.881 332.203 360.866 333.125 359.866 334.094V367H349.788V317.828H359.866V325.328C360.928 324.203 362.022 323.141 363.147 322.141C364.272 321.141 365.444 320.266 366.663 319.516C367.913 318.766 369.209 318.172 370.553 317.734C371.897 317.297 373.319 317.078 374.819 317.078C375.975 317.078 376.959 317.172 377.772 317.359C378.616 317.516 379.334 317.75 379.928 318.062L377.913 327.719ZM378.034 375.531C379.128 375.969 380.284 376.297 381.503 376.516C382.753 376.766 383.956 376.891 385.113 376.891C386.05 376.891 386.925 376.719 387.738 376.375C388.581 376.062 389.378 375.531 390.128 374.781C390.909 374.062 391.644 373.109 392.331 371.922C393.05 370.734 393.753 369.281 394.441 367.562L395.894 364.047L378.034 317.828H388.675L401.238 351.531L414.034 317.828H424.394L403.253 370.562C402.159 373.25 401.05 375.531 399.925 377.406C398.8 379.312 397.534 380.859 396.128 382.047C394.722 383.266 393.144 384.141 391.394 384.672C389.644 385.234 387.628 385.516 385.347 385.516C383.784 385.516 382.144 385.391 380.425 385.141C378.706 384.891 377.144 384.547 375.738 384.109L378.034 375.531ZM470.547 342.531C470.547 346.531 470.109 350.125 469.234 353.312C468.391 356.5 467.047 359.219 465.203 361.469C463.391 363.719 461.062 365.453 458.219 366.672C455.375 367.859 451.969 368.453 448 368.453C444 368.453 440.562 367.844 437.688 366.625C434.812 365.406 432.453 363.672 430.609 361.422C428.797 359.172 427.453 356.453 426.578 353.266C425.734 350.078 425.312 346.5 425.312 342.531C425.312 338.5 425.75 334.875 426.625 331.656C427.5 328.438 428.844 325.703 430.656 323.453C432.5 321.172 434.844 319.438 437.688 318.25C440.562 317.031 444 316.422 448 316.422C451.969 316.422 455.375 317.031 458.219 318.25C461.062 319.438 463.391 321.172 465.203 323.453C467.047 325.703 468.391 328.438 469.234 331.656C470.109 334.875 470.547 338.5 470.547 342.531ZM460.094 342.531C460.094 336.688 459.141 332.344 457.234 329.5C455.359 326.656 452.281 325.234 448 325.234C443.719 325.234 440.594 326.656 438.625 329.5C436.688 332.344 435.719 336.688 435.719 342.531C435.719 348.219 436.672 352.5 438.578 355.375C440.516 358.25 443.656 359.688 448 359.688C452.219 359.688 455.281 358.25 457.188 355.375C459.125 352.5 460.094 348.219 460.094 342.531ZM509.341 367V338.969C509.341 336.531 509.263 334.469 509.106 332.781C508.95 331.062 508.606 329.672 508.075 328.609C507.575 327.547 506.856 326.781 505.919 326.312C504.981 325.844 503.731 325.609 502.169 325.609C501.138 325.609 500.028 325.812 498.841 326.219C497.684 326.625 496.497 327.188 495.278 327.906C494.091 328.594 492.888 329.406 491.669 330.344C490.45 331.25 489.278 332.203 488.153 333.203V367H478.075V317.828H488.153V324.672C489.216 323.609 490.403 322.578 491.716 321.578C493.028 320.578 494.403 319.703 495.841 318.953C497.309 318.172 498.809 317.562 500.341 317.125C501.903 316.656 503.466 316.422 505.028 316.422C507.778 316.422 510.075 316.812 511.919 317.594C513.763 318.375 515.231 319.531 516.325 321.062C517.45 322.562 518.247 324.422 518.716 326.641C519.184 328.828 519.419 331.344 519.419 334.188V367H509.341ZM536.931 344.547C536.962 347.016 537.212 349.203 537.681 351.109C538.181 352.984 538.947 354.562 539.978 355.844C541.009 357.094 542.337 358.047 543.962 358.703C545.619 359.359 547.65 359.688 550.056 359.688C552.306 359.688 554.291 359.312 556.009 358.562C557.759 357.781 559.369 356.469 560.837 354.625L568.572 359.875C567.634 361.281 566.587 362.516 565.431 363.578C564.275 364.641 562.931 365.531 561.4 366.25C559.869 366.969 558.119 367.516 556.15 367.891C554.212 368.266 551.994 368.453 549.494 368.453C541.65 368.453 535.853 366.297 532.103 361.984C528.384 357.641 526.525 351.25 526.525 342.812C526.525 338.844 526.916 335.25 527.697 332.031C528.509 328.781 529.791 326 531.541 323.688C533.322 321.375 535.634 319.594 538.478 318.344C541.322 317.062 544.806 316.422 548.931 316.422C552.587 316.422 555.697 316.969 558.259 318.062C560.853 319.156 562.962 320.703 564.587 322.703C566.212 324.703 567.4 327.109 568.15 329.922C568.9 332.734 569.275 335.844 569.275 339.25V344.547H536.931ZM559.291 337.141C559.291 333.047 558.431 329.938 556.712 327.812C554.994 325.656 552.291 324.578 548.603 324.578C546.728 324.578 545.119 324.859 543.775 325.422C542.462 325.953 541.353 326.75 540.447 327.812C539.572 328.875 538.869 330.188 538.337 331.75C537.806 333.312 537.4 335.109 537.119 337.141H559.291Z" fill="white"/>
<path d="M237.109 310H234.812L231.93 301.387L229.023 310H226.715L223.527 297.707H226.141L228.133 306.355L230.969 297.707H232.961L235.844 306.332L237.766 297.707H240.285L237.109 310ZM243.433 304.387C243.441 305.004 243.503 305.551 243.62 306.027C243.745 306.496 243.937 306.891 244.195 307.211C244.452 307.523 244.784 307.762 245.191 307.926C245.605 308.09 246.112 308.172 246.714 308.172C247.277 308.172 247.773 308.078 248.202 307.891C248.64 307.695 249.042 307.367 249.409 306.906L251.343 308.219C251.109 308.57 250.847 308.879 250.558 309.145C250.269 309.41 249.933 309.633 249.55 309.812C249.167 309.992 248.73 310.129 248.237 310.223C247.753 310.316 247.198 310.363 246.573 310.363C244.612 310.363 243.163 309.824 242.226 308.746C241.296 307.66 240.831 306.062 240.831 303.953C240.831 302.961 240.929 302.062 241.124 301.258C241.327 300.445 241.648 299.75 242.085 299.172C242.53 298.594 243.109 298.148 243.82 297.836C244.53 297.516 245.402 297.355 246.433 297.355C247.347 297.355 248.124 297.492 248.765 297.766C249.413 298.039 249.941 298.426 250.347 298.926C250.753 299.426 251.05 300.027 251.237 300.73C251.425 301.434 251.519 302.211 251.519 303.062V304.387H243.433ZM249.023 302.535C249.023 301.512 248.808 300.734 248.378 300.203C247.948 299.664 247.273 299.395 246.351 299.395C245.882 299.395 245.48 299.465 245.144 299.605C244.816 299.738 244.538 299.938 244.312 300.203C244.093 300.469 243.917 300.797 243.784 301.188C243.652 301.578 243.55 302.027 243.48 302.535H249.023ZM264.217 303.766C264.217 304.648 264.127 305.488 263.948 306.285C263.768 307.082 263.483 307.785 263.092 308.395C262.702 308.996 262.198 309.477 261.58 309.836C260.963 310.188 260.217 310.363 259.342 310.363C258.991 310.363 258.639 310.324 258.288 310.246C257.944 310.168 257.612 310.062 257.291 309.93C256.971 309.797 256.67 309.645 256.389 309.473C256.108 309.293 255.858 309.109 255.639 308.922L255.452 310H253.295V292.551H255.815V298.82C256.299 298.398 256.854 298.051 257.479 297.777C258.104 297.496 258.78 297.355 259.506 297.355C260.334 297.355 261.045 297.508 261.639 297.812C262.233 298.117 262.721 298.551 263.104 299.113C263.487 299.668 263.768 300.34 263.948 301.129C264.127 301.918 264.217 302.797 264.217 303.766ZM261.616 303.812C261.616 302.406 261.397 301.352 260.959 300.648C260.522 299.938 259.83 299.582 258.885 299.582C258.612 299.582 258.334 299.621 258.053 299.699C257.772 299.77 257.498 299.871 257.233 300.004C256.975 300.129 256.725 300.277 256.483 300.449C256.241 300.613 256.018 300.789 255.815 300.977V306.93C256.002 307.094 256.213 307.25 256.448 307.398C256.682 307.539 256.928 307.664 257.186 307.773C257.444 307.883 257.705 307.969 257.971 308.031C258.237 308.094 258.495 308.125 258.745 308.125C259.143 308.125 259.518 308.047 259.87 307.891C260.221 307.734 260.526 307.484 260.784 307.141C261.041 306.797 261.245 306.352 261.393 305.805C261.541 305.258 261.616 304.594 261.616 303.812ZM274.959 306.59C274.959 307.27 274.826 307.848 274.56 308.324C274.302 308.801 273.951 309.191 273.505 309.496C273.068 309.801 272.56 310.02 271.982 310.152C271.404 310.293 270.798 310.363 270.166 310.363C269.525 310.363 268.943 310.309 268.42 310.199C267.904 310.09 267.443 309.941 267.037 309.754C266.63 309.559 266.279 309.328 265.982 309.062C265.693 308.797 265.455 308.508 265.267 308.195L267.189 306.906C267.525 307.398 267.939 307.75 268.431 307.961C268.923 308.172 269.478 308.277 270.095 308.277C270.4 308.277 270.697 308.254 270.986 308.207C271.275 308.16 271.529 308.078 271.748 307.961C271.974 307.836 272.154 307.672 272.287 307.469C272.427 307.266 272.498 307.012 272.498 306.707C272.498 306.473 272.447 306.273 272.345 306.109C272.244 305.945 272.084 305.801 271.865 305.676C271.646 305.543 271.361 305.422 271.009 305.312C270.666 305.195 270.248 305.078 269.755 304.961C269.201 304.82 268.67 304.66 268.162 304.48C267.654 304.301 267.205 304.066 266.814 303.777C266.431 303.48 266.123 303.113 265.888 302.676C265.654 302.23 265.537 301.68 265.537 301.023C265.537 300.5 265.634 300.016 265.83 299.57C266.025 299.125 266.318 298.738 266.709 298.41C267.107 298.082 267.595 297.824 268.173 297.637C268.759 297.449 269.439 297.355 270.213 297.355C270.752 297.355 271.255 297.406 271.724 297.508C272.201 297.609 272.63 297.754 273.013 297.941C273.404 298.129 273.748 298.355 274.045 298.621C274.341 298.879 274.584 299.168 274.771 299.488L272.849 300.789C272.732 300.617 272.591 300.449 272.427 300.285C272.263 300.121 272.068 299.977 271.841 299.852C271.623 299.727 271.373 299.629 271.091 299.559C270.818 299.48 270.509 299.441 270.166 299.441C269.509 299.441 268.986 299.57 268.595 299.828C268.205 300.078 268.009 300.445 268.009 300.93C268.009 301.156 268.048 301.348 268.127 301.504C268.213 301.66 268.345 301.801 268.525 301.926C268.713 302.051 268.955 302.164 269.252 302.266C269.548 302.359 269.908 302.457 270.33 302.559C271.041 302.738 271.681 302.93 272.252 303.133C272.83 303.336 273.318 303.586 273.716 303.883C274.115 304.18 274.42 304.547 274.63 304.984C274.849 305.414 274.959 305.949 274.959 306.59ZM279.454 294.473C279.454 294.988 279.329 295.348 279.079 295.551C278.837 295.746 278.458 295.844 277.942 295.844C277.38 295.844 276.989 295.727 276.77 295.492C276.559 295.258 276.454 294.918 276.454 294.473C276.454 293.988 276.567 293.641 276.794 293.43C277.02 293.211 277.403 293.102 277.942 293.102C278.481 293.102 278.868 293.207 279.102 293.418C279.337 293.629 279.454 293.98 279.454 294.473ZM276.7 310V297.707H279.22V310H276.7ZM288.168 310C287.816 310.109 287.418 310.195 286.973 310.258C286.535 310.328 286.117 310.363 285.719 310.363C285.047 310.363 284.473 310.281 283.996 310.117C283.527 309.961 283.141 309.719 282.836 309.391C282.539 309.055 282.32 308.629 282.18 308.113C282.039 307.598 281.969 306.988 281.969 306.285V299.758H280.316V297.707H281.969V294.285H284.488V297.707H287.465V299.758H284.488V305.898C284.488 306.336 284.512 306.707 284.559 307.012C284.613 307.309 284.699 307.551 284.816 307.738C284.934 307.926 285.086 308.062 285.273 308.148C285.469 308.234 285.703 308.277 285.977 308.277C286.25 308.277 286.539 308.246 286.844 308.184C287.148 308.113 287.414 308.031 287.641 307.938L288.168 310ZM290.964 304.387C290.972 305.004 291.034 305.551 291.152 306.027C291.277 306.496 291.468 306.891 291.726 307.211C291.984 307.523 292.316 307.762 292.722 307.926C293.136 308.09 293.644 308.172 294.245 308.172C294.808 308.172 295.304 308.078 295.734 307.891C296.171 307.695 296.573 307.367 296.941 306.906L298.874 308.219C298.64 308.57 298.378 308.879 298.089 309.145C297.8 309.41 297.464 309.633 297.081 309.812C296.698 309.992 296.261 310.129 295.769 310.223C295.284 310.316 294.73 310.363 294.105 310.363C292.144 310.363 290.695 309.824 289.757 308.746C288.827 307.66 288.363 306.062 288.363 303.953C288.363 302.961 288.46 302.062 288.655 301.258C288.859 300.445 289.179 299.75 289.616 299.172C290.062 298.594 290.64 298.148 291.351 297.836C292.062 297.516 292.933 297.355 293.964 297.355C294.878 297.355 295.655 297.492 296.296 297.766C296.945 298.039 297.472 298.426 297.878 298.926C298.284 299.426 298.581 300.027 298.769 300.73C298.956 301.434 299.05 302.211 299.05 303.062V304.387H290.964ZM296.554 302.535C296.554 301.512 296.339 300.734 295.909 300.203C295.48 299.664 294.804 299.395 293.882 299.395C293.413 299.395 293.011 299.465 292.675 299.605C292.347 299.738 292.07 299.938 291.843 300.203C291.624 300.469 291.448 300.797 291.316 301.188C291.183 301.578 291.081 302.027 291.011 302.535H296.554ZM311.931 294.766C311.681 294.656 311.408 294.57 311.111 294.508C310.814 294.438 310.521 294.402 310.232 294.402C309.904 294.402 309.63 294.441 309.412 294.52C309.193 294.598 309.017 294.723 308.884 294.895C308.759 295.059 308.67 295.277 308.615 295.551C308.568 295.816 308.545 296.137 308.545 296.512V297.707H311.17V299.758H308.545V310H306.025V299.758H304.349V297.707H306.025V296.512C306.025 295.793 306.099 295.164 306.248 294.625C306.396 294.078 306.634 293.625 306.963 293.266C307.291 292.906 307.716 292.637 308.24 292.457C308.771 292.277 309.42 292.188 310.185 292.188C310.615 292.188 311.029 292.227 311.427 292.305C311.834 292.375 312.193 292.465 312.505 292.574L311.931 294.766ZM322.79 303.883C322.79 304.883 322.68 305.781 322.462 306.578C322.251 307.375 321.915 308.055 321.454 308.617C321.001 309.18 320.419 309.613 319.708 309.918C318.997 310.215 318.145 310.363 317.153 310.363C316.153 310.363 315.294 310.211 314.575 309.906C313.856 309.602 313.266 309.168 312.805 308.605C312.352 308.043 312.016 307.363 311.798 306.566C311.587 305.77 311.481 304.875 311.481 303.883C311.481 302.875 311.591 301.969 311.809 301.164C312.028 300.359 312.364 299.676 312.817 299.113C313.278 298.543 313.864 298.109 314.575 297.812C315.294 297.508 316.153 297.355 317.153 297.355C318.145 297.355 318.997 297.508 319.708 297.812C320.419 298.109 321.001 298.543 321.454 299.113C321.915 299.676 322.251 300.359 322.462 301.164C322.68 301.969 322.79 302.875 322.79 303.883ZM320.177 303.883C320.177 302.422 319.938 301.336 319.462 300.625C318.993 299.914 318.223 299.559 317.153 299.559C316.083 299.559 315.302 299.914 314.809 300.625C314.325 301.336 314.083 302.422 314.083 303.883C314.083 305.305 314.321 306.375 314.798 307.094C315.282 307.812 316.067 308.172 317.153 308.172C318.208 308.172 318.973 307.812 319.45 307.094C319.934 306.375 320.177 305.305 320.177 303.883ZM331.703 300.18C331.578 300.133 331.414 300.09 331.211 300.051C331.016 300.012 330.812 299.992 330.602 299.992C330.258 299.992 329.934 300.039 329.629 300.133C329.324 300.227 329.031 300.355 328.75 300.52C328.477 300.676 328.211 300.863 327.953 301.082C327.695 301.301 327.441 301.531 327.191 301.773V310H324.672V297.707H327.191V299.582C327.457 299.301 327.73 299.035 328.012 298.785C328.293 298.535 328.586 298.316 328.891 298.129C329.203 297.941 329.527 297.793 329.863 297.684C330.199 297.574 330.555 297.52 330.93 297.52C331.219 297.52 331.465 297.543 331.668 297.59C331.879 297.629 332.059 297.688 332.207 297.766L331.703 300.18Z" fill="white"/>
<path d="M24.9531 158V156.605C24.375 157.121 23.7617 157.543 23.1133 157.871C22.4727 158.199 21.7734 158.363 21.0156 158.363C20.3906 158.363 19.8359 158.27 19.3516 158.082C18.8672 157.895 18.4609 157.633 18.1328 157.297C17.8047 156.953 17.5547 156.551 17.3828 156.09C17.2109 155.621 17.125 155.105 17.125 154.543C17.125 153.801 17.2461 153.18 17.4883 152.68C17.7383 152.18 18.0781 151.773 18.5078 151.461C18.9453 151.141 19.4609 150.902 20.0547 150.746C20.6562 150.582 21.3125 150.465 22.0234 150.395L24.8359 150.125V149.551C24.8359 149.145 24.7734 148.809 24.6484 148.543C24.5312 148.27 24.3555 148.051 24.1211 147.887C23.8945 147.723 23.6094 147.609 23.2656 147.547C22.9297 147.477 22.5469 147.441 22.1172 147.441C21.7031 147.441 21.3398 147.48 21.0273 147.559C20.7227 147.637 20.457 147.738 20.2305 147.863C20.0039 147.988 19.8164 148.133 19.668 148.297C19.5195 148.453 19.4023 148.609 19.3164 148.766L17.3242 147.488C17.4727 147.223 17.6758 146.965 17.9336 146.715C18.1992 146.457 18.5273 146.23 18.918 146.035C19.3086 145.832 19.7695 145.668 20.3008 145.543C20.8398 145.418 21.4609 145.355 22.1641 145.355C23.0234 145.355 23.7773 145.426 24.4258 145.566C25.0742 145.707 25.6133 145.941 26.043 146.27C26.4805 146.598 26.8086 147.039 27.0273 147.594C27.2461 148.141 27.3555 148.824 27.3555 149.645V158H24.9531ZM24.8359 152.023L23.0781 152.188C22.5391 152.234 22.0586 152.309 21.6367 152.41C21.2227 152.512 20.8711 152.652 20.582 152.832C20.3008 153.012 20.0859 153.238 19.9375 153.512C19.7891 153.777 19.7148 154.105 19.7148 154.496C19.7148 155.145 19.8867 155.605 20.2305 155.879C20.5742 156.145 21.0586 156.277 21.6836 156.277C21.9258 156.277 22.1758 156.234 22.4336 156.148C22.6992 156.062 22.9648 155.949 23.2305 155.809C23.5039 155.668 23.7734 155.504 24.0391 155.316C24.3125 155.121 24.5781 154.918 24.8359 154.707V152.023ZM38.6242 154.59C38.6242 155.27 38.4914 155.848 38.2258 156.324C37.968 156.801 37.6164 157.191 37.1711 157.496C36.7336 157.801 36.2258 158.02 35.6477 158.152C35.0695 158.293 34.4641 158.363 33.8313 158.363C33.1906 158.363 32.6086 158.309 32.0852 158.199C31.5695 158.09 31.1086 157.941 30.7023 157.754C30.2961 157.559 29.9445 157.328 29.6477 157.062C29.3586 156.797 29.1203 156.508 28.9328 156.195L30.8547 154.906C31.1906 155.398 31.6047 155.75 32.0969 155.961C32.5891 156.172 33.1438 156.277 33.7609 156.277C34.0656 156.277 34.3625 156.254 34.6516 156.207C34.9406 156.16 35.1945 156.078 35.4133 155.961C35.6398 155.836 35.8195 155.672 35.9523 155.469C36.093 155.266 36.1633 155.012 36.1633 154.707C36.1633 154.473 36.1125 154.273 36.0109 154.109C35.9094 153.945 35.7492 153.801 35.5305 153.676C35.3117 153.543 35.0266 153.422 34.675 153.312C34.3313 153.195 33.9133 153.078 33.4211 152.961C32.8664 152.82 32.3352 152.66 31.8273 152.48C31.3195 152.301 30.8703 152.066 30.4797 151.777C30.0969 151.48 29.7883 151.113 29.5539 150.676C29.3195 150.23 29.2023 149.68 29.2023 149.023C29.2023 148.5 29.3 148.016 29.4953 147.57C29.6906 147.125 29.9836 146.738 30.3742 146.41C30.7727 146.082 31.2609 145.824 31.8391 145.637C32.425 145.449 33.1047 145.355 33.8781 145.355C34.4172 145.355 34.9211 145.406 35.3898 145.508C35.8664 145.609 36.2961 145.754 36.6789 145.941C37.0695 146.129 37.4133 146.355 37.7102 146.621C38.007 146.879 38.2492 147.168 38.4367 147.488L36.5148 148.789C36.3977 148.617 36.257 148.449 36.093 148.285C35.9289 148.121 35.7336 147.977 35.507 147.852C35.2883 147.727 35.0383 147.629 34.757 147.559C34.4836 147.48 34.175 147.441 33.8313 147.441C33.175 147.441 32.6516 147.57 32.2609 147.828C31.8703 148.078 31.675 148.445 31.675 148.93C31.675 149.156 31.7141 149.348 31.7922 149.504C31.8781 149.66 32.0109 149.801 32.1906 149.926C32.3781 150.051 32.6203 150.164 32.9172 150.266C33.2141 150.359 33.5734 150.457 33.9953 150.559C34.7063 150.738 35.3469 150.93 35.9172 151.133C36.4953 151.336 36.9836 151.586 37.382 151.883C37.7805 152.18 38.0852 152.547 38.2961 152.984C38.5148 153.414 38.6242 153.949 38.6242 154.59ZM49.2367 154.59C49.2367 155.27 49.1039 155.848 48.8383 156.324C48.5805 156.801 48.2289 157.191 47.7836 157.496C47.3461 157.801 46.8383 158.02 46.2602 158.152C45.682 158.293 45.0766 158.363 44.4438 158.363C43.8031 158.363 43.2211 158.309 42.6977 158.199C42.182 158.09 41.7211 157.941 41.3148 157.754C40.9086 157.559 40.557 157.328 40.2602 157.062C39.9711 156.797 39.7328 156.508 39.5453 156.195L41.4672 154.906C41.8031 155.398 42.2172 155.75 42.7094 155.961C43.2016 156.172 43.7563 156.277 44.3734 156.277C44.6781 156.277 44.975 156.254 45.2641 156.207C45.5531 156.16 45.807 156.078 46.0258 155.961C46.2523 155.836 46.432 155.672 46.5648 155.469C46.7055 155.266 46.7758 155.012 46.7758 154.707C46.7758 154.473 46.725 154.273 46.6234 154.109C46.5219 153.945 46.3617 153.801 46.143 153.676C45.9242 153.543 45.6391 153.422 45.2875 153.312C44.9438 153.195 44.5258 153.078 44.0336 152.961C43.4789 152.82 42.9477 152.66 42.4398 152.48C41.932 152.301 41.4828 152.066 41.0922 151.777C40.7094 151.48 40.4008 151.113 40.1664 150.676C39.932 150.23 39.8148 149.68 39.8148 149.023C39.8148 148.5 39.9125 148.016 40.1078 147.57C40.3031 147.125 40.5961 146.738 40.9867 146.41C41.3852 146.082 41.8734 145.824 42.4516 145.637C43.0375 145.449 43.7172 145.355 44.4906 145.355C45.0297 145.355 45.5336 145.406 46.0023 145.508C46.4789 145.609 46.9086 145.754 47.2914 145.941C47.682 146.129 48.0258 146.355 48.3227 146.621C48.6195 146.879 48.8617 147.168 49.0492 147.488L47.1273 148.789C47.0102 148.617 46.8695 148.449 46.7055 148.285C46.5414 148.121 46.3461 147.977 46.1195 147.852C45.9008 147.727 45.6508 147.629 45.3695 147.559C45.0961 147.48 44.7875 147.441 44.4438 147.441C43.7875 147.441 43.2641 147.57 42.8734 147.828C42.4828 148.078 42.2875 148.445 42.2875 148.93C42.2875 149.156 42.3266 149.348 42.4047 149.504C42.4906 149.66 42.6234 149.801 42.8031 149.926C42.9906 150.051 43.2328 150.164 43.5297 150.266C43.8266 150.359 44.1859 150.457 44.6078 150.559C45.3188 150.738 45.9594 150.93 46.5297 151.133C47.1078 151.336 47.5961 151.586 47.9945 151.883C48.393 152.18 48.6977 152.547 48.9086 152.984C49.1273 153.414 49.2367 153.949 49.2367 154.59ZM58.7008 158V156.301C58.4273 156.574 58.1266 156.836 57.7984 157.086C57.4781 157.336 57.1344 157.555 56.7672 157.742C56.4078 157.93 56.0328 158.078 55.6422 158.188C55.2594 158.305 54.8727 158.363 54.482 158.363C53.7945 158.363 53.2203 158.266 52.7594 158.07C52.2984 157.875 51.9273 157.59 51.6461 157.215C51.3727 156.832 51.1773 156.367 51.0602 155.82C50.943 155.266 50.8844 154.633 50.8844 153.922V145.707H53.4039V152.715C53.4039 153.332 53.4234 153.855 53.4625 154.285C53.5016 154.707 53.5836 155.051 53.7086 155.316C53.8336 155.574 54.0133 155.762 54.2477 155.879C54.482 155.996 54.7906 156.055 55.1734 156.055C55.4313 156.055 55.7047 156.004 55.9938 155.902C56.2906 155.801 56.5914 155.664 56.8961 155.492C57.2086 155.32 57.5172 155.121 57.8219 154.895C58.1266 154.66 58.4195 154.414 58.7008 154.156V145.707H61.2203V158H58.7008ZM70.7547 148.18C70.6297 148.133 70.4656 148.09 70.2625 148.051C70.0672 148.012 69.8641 147.992 69.6531 147.992C69.3094 147.992 68.9852 148.039 68.6805 148.133C68.3758 148.227 68.0828 148.355 67.8016 148.52C67.5281 148.676 67.2625 148.863 67.0047 149.082C66.7469 149.301 66.493 149.531 66.243 149.773V158H63.7234V145.707H66.243V147.582C66.5086 147.301 66.782 147.035 67.0633 146.785C67.3445 146.535 67.6375 146.316 67.9422 146.129C68.2547 145.941 68.5789 145.793 68.9148 145.684C69.2508 145.574 69.6063 145.52 69.9813 145.52C70.2703 145.52 70.5164 145.543 70.7195 145.59C70.9305 145.629 71.1102 145.688 71.2586 145.766L70.7547 148.18ZM79.1875 158V156.605C78.6094 157.121 77.9961 157.543 77.3477 157.871C76.707 158.199 76.0078 158.363 75.25 158.363C74.625 158.363 74.0703 158.27 73.5859 158.082C73.1016 157.895 72.6953 157.633 72.3672 157.297C72.0391 156.953 71.7891 156.551 71.6172 156.09C71.4453 155.621 71.3594 155.105 71.3594 154.543C71.3594 153.801 71.4805 153.18 71.7227 152.68C71.9727 152.18 72.3125 151.773 72.7422 151.461C73.1797 151.141 73.6953 150.902 74.2891 150.746C74.8906 150.582 75.5469 150.465 76.2578 150.395L79.0703 150.125V149.551C79.0703 149.145 79.0078 148.809 78.8828 148.543C78.7656 148.27 78.5898 148.051 78.3555 147.887C78.1289 147.723 77.8438 147.609 77.5 147.547C77.1641 147.477 76.7812 147.441 76.3516 147.441C75.9375 147.441 75.5742 147.48 75.2617 147.559C74.957 147.637 74.6914 147.738 74.4648 147.863C74.2383 147.988 74.0508 148.133 73.9023 148.297C73.7539 148.453 73.6367 148.609 73.5508 148.766L71.5586 147.488C71.707 147.223 71.9102 146.965 72.168 146.715C72.4336 146.457 72.7617 146.23 73.1523 146.035C73.543 145.832 74.0039 145.668 74.5352 145.543C75.0742 145.418 75.6953 145.355 76.3984 145.355C77.2578 145.355 78.0117 145.426 78.6602 145.566C79.3086 145.707 79.8477 145.941 80.2773 146.27C80.7148 146.598 81.043 147.039 81.2617 147.594C81.4805 148.141 81.5898 148.824 81.5898 149.645V158H79.1875ZM79.0703 152.023L77.3125 152.188C76.7734 152.234 76.293 152.309 75.8711 152.41C75.457 152.512 75.1055 152.652 74.8164 152.832C74.5352 153.012 74.3203 153.238 74.1719 153.512C74.0234 153.777 73.9492 154.105 73.9492 154.496C73.9492 155.145 74.1211 155.605 74.4648 155.879C74.8086 156.145 75.293 156.277 75.918 156.277C76.1602 156.277 76.4102 156.234 76.668 156.148C76.9336 156.062 77.1992 155.949 77.4648 155.809C77.7383 155.668 78.0078 155.504 78.2734 155.316C78.5469 155.121 78.8125 154.918 79.0703 154.707V152.023ZM91.8039 158V150.992C91.8039 150.383 91.7844 149.867 91.7453 149.445C91.7063 149.016 91.6203 148.668 91.4875 148.402C91.3625 148.137 91.1828 147.945 90.9484 147.828C90.7141 147.711 90.4016 147.652 90.0109 147.652C89.7531 147.652 89.4758 147.703 89.1789 147.805C88.8898 147.906 88.593 148.047 88.2883 148.227C87.9914 148.398 87.6906 148.602 87.3859 148.836C87.0813 149.062 86.7883 149.301 86.507 149.551V158H83.9875V145.707H86.507V147.418C86.7727 147.152 87.0695 146.895 87.3977 146.645C87.7258 146.395 88.0695 146.176 88.4289 145.988C88.7961 145.793 89.1711 145.641 89.5539 145.531C89.9445 145.414 90.3352 145.355 90.7258 145.355C91.4133 145.355 91.9875 145.453 92.4484 145.648C92.9094 145.844 93.2766 146.133 93.55 146.516C93.8313 146.891 94.0305 147.355 94.1477 147.91C94.2648 148.457 94.3234 149.086 94.3234 149.797V158H91.8039ZM106.424 156.172C106.205 156.508 105.955 156.812 105.674 157.086C105.393 157.352 105.065 157.582 104.69 157.777C104.323 157.965 103.901 158.109 103.424 158.211C102.955 158.312 102.428 158.363 101.842 158.363C100.811 158.363 99.932 158.207 99.2055 157.895C98.4789 157.582 97.8852 157.141 97.4242 156.57C96.9633 156 96.6273 155.32 96.4164 154.531C96.2055 153.742 96.1 152.867 96.1 151.906C96.1 150.906 96.2094 150.004 96.4281 149.199C96.6547 148.387 96.9984 147.699 97.4594 147.137C97.9203 146.566 98.5062 146.129 99.2172 145.824C99.9281 145.512 100.772 145.355 101.748 145.355C102.787 145.355 103.69 145.535 104.455 145.895C105.221 146.254 105.823 146.801 106.26 147.535L104.291 148.859C104.018 148.438 103.682 148.117 103.284 147.898C102.885 147.672 102.381 147.559 101.772 147.559C100.717 147.559 99.9398 147.91 99.4398 148.613C98.9477 149.309 98.7016 150.406 98.7016 151.906C98.7016 152.594 98.7562 153.203 98.8656 153.734C98.975 154.266 99.1508 154.711 99.393 155.07C99.643 155.43 99.9711 155.703 100.377 155.891C100.784 156.078 101.28 156.172 101.866 156.172C102.139 156.172 102.393 156.152 102.627 156.113C102.87 156.066 103.096 155.992 103.307 155.891C103.518 155.789 103.717 155.656 103.905 155.492C104.092 155.328 104.276 155.125 104.455 154.883L106.424 156.172ZM109.736 152.387C109.744 153.004 109.806 153.551 109.923 154.027C110.048 154.496 110.24 154.891 110.498 155.211C110.755 155.523 111.088 155.762 111.494 155.926C111.908 156.09 112.416 156.172 113.017 156.172C113.58 156.172 114.076 156.078 114.505 155.891C114.943 155.695 115.345 155.367 115.713 154.906L117.646 156.219C117.412 156.57 117.15 156.879 116.861 157.145C116.572 157.41 116.236 157.633 115.853 157.812C115.47 157.992 115.033 158.129 114.541 158.223C114.056 158.316 113.502 158.363 112.877 158.363C110.916 158.363 109.466 157.824 108.529 156.746C107.599 155.66 107.134 154.062 107.134 151.953C107.134 150.961 107.232 150.062 107.427 149.258C107.63 148.445 107.951 147.75 108.388 147.172C108.834 146.594 109.412 146.148 110.123 145.836C110.834 145.516 111.705 145.355 112.736 145.355C113.65 145.355 114.427 145.492 115.068 145.766C115.716 146.039 116.244 146.426 116.65 146.926C117.056 147.426 117.353 148.027 117.541 148.73C117.728 149.434 117.822 150.211 117.822 151.062V152.387H109.736ZM115.326 150.535C115.326 149.512 115.111 148.734 114.681 148.203C114.252 147.664 113.576 147.395 112.654 147.395C112.185 147.395 111.783 147.465 111.447 147.605C111.119 147.738 110.841 147.938 110.615 148.203C110.396 148.469 110.22 148.797 110.088 149.188C109.955 149.578 109.853 150.027 109.783 150.535H115.326Z" fill="white"/>
<path d="M236.527 47.8828C236.527 48.8828 236.418 49.7812 236.199 50.5781C235.988 51.375 235.652 52.0547 235.191 52.6172C234.738 53.1797 234.156 53.6133 233.445 53.918C232.734 54.2148 231.883 54.3633 230.891 54.3633C229.891 54.3633 229.031 54.2109 228.312 53.9062C227.594 53.6016 227.004 53.168 226.543 52.6055C226.09 52.043 225.754 51.3633 225.535 50.5664C225.324 49.7695 225.219 48.875 225.219 47.8828C225.219 46.875 225.328 45.9688 225.547 45.1641C225.766 44.3594 226.102 43.6758 226.555 43.1133C227.016 42.543 227.602 42.1094 228.312 41.8125C229.031 41.5078 229.891 41.3555 230.891 41.3555C231.883 41.3555 232.734 41.5078 233.445 41.8125C234.156 42.1094 234.738 42.543 235.191 43.1133C235.652 43.6758 235.988 44.3594 236.199 45.1641C236.418 45.9688 236.527 46.875 236.527 47.8828ZM233.914 47.8828C233.914 46.4219 233.676 45.3359 233.199 44.625C232.73 43.9141 231.961 43.5586 230.891 43.5586C229.82 43.5586 229.039 43.9141 228.547 44.625C228.062 45.3359 227.82 46.4219 227.82 47.8828C227.82 49.3047 228.059 50.375 228.535 51.0938C229.02 51.8125 229.805 52.1719 230.891 52.1719C231.945 52.1719 232.711 51.8125 233.188 51.0938C233.672 50.375 233.914 49.3047 233.914 47.8828ZM246.226 54V46.9922C246.226 46.3828 246.206 45.8672 246.167 45.4453C246.128 45.0156 246.042 44.668 245.909 44.4023C245.784 44.1367 245.605 43.9453 245.37 43.8281C245.136 43.7109 244.823 43.6523 244.433 43.6523C244.175 43.6523 243.898 43.7031 243.601 43.8047C243.312 43.9062 243.015 44.0469 242.71 44.2266C242.413 44.3984 242.113 44.6016 241.808 44.8359C241.503 45.0625 241.21 45.3008 240.929 45.5508V54H238.409V41.707H240.929V43.418C241.195 43.1523 241.491 42.8945 241.82 42.6445C242.148 42.3945 242.491 42.1758 242.851 41.9883C243.218 41.793 243.593 41.6406 243.976 41.5312C244.366 41.4141 244.757 41.3555 245.148 41.3555C245.835 41.3555 246.409 41.4531 246.87 41.6484C247.331 41.8438 247.698 42.1328 247.972 42.5156C248.253 42.8906 248.452 43.3555 248.57 43.9102C248.687 44.457 248.745 45.0859 248.745 45.7969V54H246.226ZM261.444 53.7656C261.444 54.5859 261.334 55.3008 261.116 55.9102C260.897 56.5195 260.553 57.0234 260.084 57.4219C259.616 57.8281 259.014 58.1289 258.28 58.3242C257.545 58.5273 256.666 58.6289 255.643 58.6289C254.698 58.6289 253.834 58.5312 253.053 58.3359C252.28 58.1484 251.588 57.8789 250.979 57.5273L251.799 55.4883C252.33 55.7773 252.913 56.0117 253.545 56.1914C254.186 56.3789 254.885 56.4727 255.643 56.4727C256.237 56.4727 256.741 56.4219 257.155 56.3203C257.569 56.2188 257.905 56.0586 258.163 55.8398C258.428 55.6289 258.62 55.3516 258.737 55.0078C258.862 54.6641 258.924 54.25 258.924 53.7656V52.5352C258.463 52.957 257.924 53.3086 257.307 53.5898C256.69 53.8633 256.006 54 255.256 54C254.436 54 253.725 53.8477 253.123 53.543C252.53 53.2305 252.038 52.7969 251.647 52.2422C251.264 51.6875 250.979 51.0273 250.791 50.2617C250.612 49.4961 250.522 48.6523 250.522 47.7305C250.522 46.918 250.612 46.1289 250.791 45.3633C250.979 44.5977 251.272 43.918 251.67 43.3242C252.077 42.7305 252.6 42.2539 253.241 41.8945C253.889 41.5352 254.674 41.3555 255.596 41.3555C256.245 41.3555 256.873 41.4883 257.483 41.7539C258.092 42.0117 258.631 42.3594 259.1 42.7969L259.288 41.707H261.444V53.7656ZM258.924 44.8125C258.495 44.4375 258.034 44.1406 257.541 43.9219C257.057 43.6953 256.541 43.582 255.995 43.582C255.534 43.582 255.123 43.6875 254.764 43.8984C254.413 44.1016 254.112 44.3867 253.862 44.7539C253.62 45.1133 253.436 45.543 253.311 46.043C253.186 46.543 253.123 47.0898 253.123 47.6836C253.123 48.3008 253.174 48.8633 253.276 49.3711C253.377 49.8711 253.534 50.3008 253.745 50.6602C253.963 51.0117 254.241 51.2852 254.577 51.4805C254.92 51.6758 255.33 51.7734 255.807 51.7734C256.346 51.7734 256.877 51.6484 257.401 51.3984C257.932 51.1484 258.44 50.8086 258.924 50.3789V44.8125ZM274.623 47.8828C274.623 48.8828 274.513 49.7812 274.295 50.5781C274.084 51.375 273.748 52.0547 273.287 52.6172C272.834 53.1797 272.252 53.6133 271.541 53.918C270.83 54.2148 269.978 54.3633 268.986 54.3633C267.986 54.3633 267.127 54.2109 266.408 53.9062C265.689 53.6016 265.099 53.168 264.638 52.6055C264.185 52.043 263.849 51.3633 263.63 50.5664C263.42 49.7695 263.314 48.875 263.314 47.8828C263.314 46.875 263.423 45.9688 263.642 45.1641C263.861 44.3594 264.197 43.6758 264.65 43.1133C265.111 42.543 265.697 42.1094 266.408 41.8125C267.127 41.5078 267.986 41.3555 268.986 41.3555C269.978 41.3555 270.83 41.5078 271.541 41.8125C272.252 42.1094 272.834 42.543 273.287 43.1133C273.748 43.6758 274.084 44.3594 274.295 45.1641C274.513 45.9688 274.623 46.875 274.623 47.8828ZM272.009 47.8828C272.009 46.4219 271.771 45.3359 271.295 44.625C270.826 43.9141 270.056 43.5586 268.986 43.5586C267.916 43.5586 267.134 43.9141 266.642 44.625C266.158 45.3359 265.916 46.4219 265.916 47.8828C265.916 49.3047 266.154 50.375 266.63 51.0938C267.115 51.8125 267.9 52.1719 268.986 52.1719C270.041 52.1719 270.806 51.8125 271.283 51.0938C271.767 50.375 272.009 49.3047 272.009 47.8828ZM279.259 38.4727C279.259 38.9883 279.134 39.3477 278.884 39.5508C278.641 39.7461 278.263 39.8438 277.747 39.8438C277.184 39.8438 276.794 39.7266 276.575 39.4922C276.364 39.2578 276.259 38.918 276.259 38.4727C276.259 37.9883 276.372 37.6406 276.598 37.4297C276.825 37.2109 277.208 37.1016 277.747 37.1016C278.286 37.1016 278.673 37.207 278.907 37.418C279.141 37.6289 279.259 37.9805 279.259 38.4727ZM276.505 54V41.707H279.024V54H276.505ZM289.332 54V46.9922C289.332 46.3828 289.312 45.8672 289.273 45.4453C289.234 45.0156 289.148 44.668 289.016 44.4023C288.891 44.1367 288.711 43.9453 288.477 43.8281C288.242 43.7109 287.93 43.6523 287.539 43.6523C287.281 43.6523 287.004 43.7031 286.707 43.8047C286.418 43.9062 286.121 44.0469 285.816 44.2266C285.52 44.3984 285.219 44.6016 284.914 44.8359C284.609 45.0625 284.316 45.3008 284.035 45.5508V54H281.516V41.707H284.035V43.418C284.301 43.1523 284.598 42.8945 284.926 42.6445C285.254 42.3945 285.598 42.1758 285.957 41.9883C286.324 41.793 286.699 41.6406 287.082 41.5312C287.473 41.4141 287.863 41.3555 288.254 41.3555C288.941 41.3555 289.516 41.4531 289.977 41.6484C290.438 41.8438 290.805 42.1328 291.078 42.5156C291.359 42.8906 291.559 43.3555 291.676 43.9102C291.793 44.457 291.852 45.0859 291.852 45.7969V54H289.332ZM304.55 53.7656C304.55 54.5859 304.441 55.3008 304.222 55.9102C304.003 56.5195 303.659 57.0234 303.191 57.4219C302.722 57.8281 302.12 58.1289 301.386 58.3242C300.652 58.5273 299.773 58.6289 298.749 58.6289C297.804 58.6289 296.941 58.5312 296.159 58.3359C295.386 58.1484 294.695 57.8789 294.085 57.5273L294.905 55.4883C295.437 55.7773 296.019 56.0117 296.652 56.1914C297.292 56.3789 297.991 56.4727 298.749 56.4727C299.343 56.4727 299.847 56.4219 300.261 56.3203C300.675 56.2188 301.011 56.0586 301.269 55.8398C301.534 55.6289 301.726 55.3516 301.843 55.0078C301.968 54.6641 302.03 54.25 302.03 53.7656V52.5352C301.57 52.957 301.03 53.3086 300.413 53.5898C299.796 53.8633 299.113 54 298.363 54C297.542 54 296.831 53.8477 296.23 53.543C295.636 53.2305 295.144 52.7969 294.753 52.2422C294.37 51.6875 294.085 51.0273 293.898 50.2617C293.718 49.4961 293.628 48.6523 293.628 47.7305C293.628 46.918 293.718 46.1289 293.898 45.3633C294.085 44.5977 294.378 43.918 294.777 43.3242C295.183 42.7305 295.706 42.2539 296.347 41.8945C296.995 41.5352 297.78 41.3555 298.702 41.3555C299.351 41.3555 299.98 41.4883 300.589 41.7539C301.198 42.0117 301.738 42.3594 302.206 42.7969L302.394 41.707H304.55V53.7656ZM302.03 44.8125C301.601 44.4375 301.14 44.1406 300.648 43.9219C300.163 43.6953 299.648 43.582 299.101 43.582C298.64 43.582 298.23 43.6875 297.87 43.8984C297.519 44.1016 297.218 44.3867 296.968 44.7539C296.726 45.1133 296.542 45.543 296.417 46.043C296.292 46.543 296.23 47.0898 296.23 47.6836C296.23 48.3008 296.28 48.8633 296.382 49.3711C296.484 49.8711 296.64 50.3008 296.851 50.6602C297.07 51.0117 297.347 51.2852 297.683 51.4805C298.027 51.6758 298.437 51.7734 298.913 51.7734C299.452 51.7734 299.984 51.6484 300.507 51.3984C301.038 51.1484 301.546 50.8086 302.03 50.3789V44.8125ZM320.841 50.5898C320.841 51.2695 320.709 51.8477 320.443 52.3242C320.185 52.8008 319.834 53.1914 319.388 53.4961C318.951 53.8008 318.443 54.0195 317.865 54.1523C317.287 54.293 316.681 54.3633 316.048 54.3633C315.408 54.3633 314.826 54.3086 314.302 54.1992C313.787 54.0898 313.326 53.9414 312.92 53.7539C312.513 53.5586 312.162 53.3281 311.865 53.0625C311.576 52.7969 311.338 52.5078 311.15 52.1953L313.072 50.9062C313.408 51.3984 313.822 51.75 314.314 51.9609C314.806 52.1719 315.361 52.2773 315.978 52.2773C316.283 52.2773 316.58 52.2539 316.869 52.207C317.158 52.1602 317.412 52.0781 317.63 51.9609C317.857 51.8359 318.037 51.6719 318.17 51.4688C318.31 51.2656 318.38 51.0117 318.38 50.707C318.38 50.4727 318.33 50.2734 318.228 50.1094C318.127 49.9453 317.966 49.8008 317.748 49.6758C317.529 49.543 317.244 49.4219 316.892 49.3125C316.548 49.1953 316.13 49.0781 315.638 48.9609C315.084 48.8203 314.552 48.6602 314.045 48.4805C313.537 48.3008 313.088 48.0664 312.697 47.7773C312.314 47.4805 312.005 47.1133 311.771 46.6758C311.537 46.2305 311.42 45.6797 311.42 45.0234C311.42 44.5 311.517 44.0156 311.713 43.5703C311.908 43.125 312.201 42.7383 312.591 42.4102C312.99 42.082 313.478 41.8242 314.056 41.6367C314.642 41.4492 315.322 41.3555 316.095 41.3555C316.634 41.3555 317.138 41.4062 317.607 41.5078C318.084 41.6094 318.513 41.7539 318.896 41.9414C319.287 42.1289 319.63 42.3555 319.927 42.6211C320.224 42.8789 320.466 43.168 320.654 43.4883L318.732 44.7891C318.615 44.6172 318.474 44.4492 318.31 44.2852C318.146 44.1211 317.951 43.9766 317.724 43.8516C317.505 43.7266 317.255 43.6289 316.974 43.5586C316.701 43.4805 316.392 43.4414 316.048 43.4414C315.392 43.4414 314.869 43.5703 314.478 43.8281C314.088 44.0781 313.892 44.4453 313.892 44.9297C313.892 45.1562 313.931 45.3477 314.009 45.5039C314.095 45.6602 314.228 45.8008 314.408 45.9258C314.595 46.0508 314.838 46.1641 315.134 46.2656C315.431 46.3594 315.791 46.457 316.213 46.5586C316.923 46.7383 317.564 46.9297 318.134 47.1328C318.713 47.3359 319.201 47.5859 319.599 47.8828C319.998 48.1797 320.302 48.5469 320.513 48.9844C320.732 49.4141 320.841 49.9492 320.841 50.5898ZM330.305 54V52.3008C330.032 52.5742 329.731 52.8359 329.403 53.0859C329.083 53.3359 328.739 53.5547 328.372 53.7422C328.012 53.9297 327.637 54.0781 327.247 54.1875C326.864 54.3047 326.477 54.3633 326.087 54.3633C325.399 54.3633 324.825 54.2656 324.364 54.0703C323.903 53.875 323.532 53.5898 323.251 53.2148C322.977 52.832 322.782 52.3672 322.665 51.8203C322.548 51.2656 322.489 50.6328 322.489 49.9219V41.707H325.009V48.7148C325.009 49.332 325.028 49.8555 325.067 50.2852C325.106 50.707 325.188 51.0508 325.313 51.3164C325.438 51.5742 325.618 51.7617 325.852 51.8789C326.087 51.9961 326.395 52.0547 326.778 52.0547C327.036 52.0547 327.309 52.0039 327.598 51.9023C327.895 51.8008 328.196 51.6641 328.501 51.4922C328.813 51.3203 329.122 51.1211 329.427 50.8945C329.731 50.6602 330.024 50.4141 330.305 50.1562V41.707H332.825V54H330.305ZM346.25 47.7656C346.25 48.625 346.156 49.4531 345.969 50.25C345.781 51.0469 345.488 51.75 345.09 52.3594C344.691 52.9688 344.18 53.457 343.555 53.8242C342.93 54.1836 342.18 54.3633 341.305 54.3633C340.641 54.3633 340.02 54.2461 339.441 54.0117C338.863 53.7852 338.332 53.4609 337.848 53.0391V58.6289H335.328V41.707H337.719V42.9375C338.234 42.4688 338.809 42.0898 339.441 41.8008C340.082 41.5039 340.781 41.3555 341.539 41.3555C342.359 41.3555 343.062 41.5117 343.648 41.8242C344.242 42.1367 344.73 42.5742 345.113 43.1367C345.504 43.6992 345.789 44.375 345.969 45.1641C346.156 45.9531 346.25 46.8203 346.25 47.7656ZM343.648 47.8125C343.648 46.4297 343.418 45.3789 342.957 44.6602C342.504 43.9414 341.832 43.582 340.941 43.582C340.66 43.582 340.375 43.6211 340.086 43.6992C339.805 43.7695 339.531 43.8711 339.266 44.0039C339 44.1289 338.746 44.2773 338.504 44.4492C338.262 44.6133 338.043 44.7891 337.848 44.9766V50.9297C338.035 51.0938 338.238 51.25 338.457 51.3984C338.684 51.5391 338.922 51.6641 339.172 51.7734C339.422 51.8828 339.68 51.9688 339.945 52.0312C340.211 52.0938 340.48 52.125 340.754 52.125C341.145 52.125 341.516 52.043 341.867 51.8789C342.219 51.7148 342.523 51.4609 342.781 51.1172C343.047 50.7656 343.258 50.3203 343.414 49.7812C343.57 49.2344 343.648 48.5781 343.648 47.8125ZM359.042 47.7656C359.042 48.625 358.948 49.4531 358.761 50.25C358.573 51.0469 358.28 51.75 357.882 52.3594C357.484 52.9688 356.972 53.457 356.347 53.8242C355.722 54.1836 354.972 54.3633 354.097 54.3633C353.433 54.3633 352.812 54.2461 352.234 54.0117C351.655 53.7852 351.124 53.4609 350.64 53.0391V58.6289H348.12V41.707H350.511V42.9375C351.027 42.4688 351.601 42.0898 352.234 41.8008C352.874 41.5039 353.573 41.3555 354.331 41.3555C355.152 41.3555 355.855 41.5117 356.441 41.8242C357.034 42.1367 357.523 42.5742 357.905 43.1367C358.296 43.6992 358.581 44.375 358.761 45.1641C358.948 45.9531 359.042 46.8203 359.042 47.7656ZM356.441 47.8125C356.441 46.4297 356.21 45.3789 355.749 44.6602C355.296 43.9414 354.624 43.582 353.734 43.582C353.452 43.582 353.167 43.6211 352.878 43.6992C352.597 43.7695 352.323 43.8711 352.058 44.0039C351.792 44.1289 351.538 44.2773 351.296 44.4492C351.054 44.6133 350.835 44.7891 350.64 44.9766V50.9297C350.827 51.0938 351.03 51.25 351.249 51.3984C351.476 51.5391 351.714 51.6641 351.964 51.7734C352.214 51.8828 352.472 51.9688 352.738 52.0312C353.003 52.0938 353.273 52.125 353.546 52.125C353.937 52.125 354.308 52.043 354.659 51.8789C355.011 51.7148 355.316 51.4609 355.573 51.1172C355.839 50.7656 356.05 50.3203 356.206 49.7812C356.363 49.2344 356.441 48.5781 356.441 47.8125ZM371.588 47.8828C371.588 48.8828 371.479 49.7812 371.26 50.5781C371.049 51.375 370.713 52.0547 370.252 52.6172C369.799 53.1797 369.217 53.6133 368.506 53.918C367.795 54.2148 366.944 54.3633 365.952 54.3633C364.952 54.3633 364.092 54.2109 363.373 53.9062C362.655 53.6016 362.065 53.168 361.604 52.6055C361.151 52.043 360.815 51.3633 360.596 50.5664C360.385 49.7695 360.28 48.875 360.28 47.8828C360.28 46.875 360.389 45.9688 360.608 45.1641C360.827 44.3594 361.163 43.6758 361.616 43.1133C362.077 42.543 362.663 42.1094 363.373 41.8125C364.092 41.5078 364.952 41.3555 365.952 41.3555C366.944 41.3555 367.795 41.5078 368.506 41.8125C369.217 42.1094 369.799 42.543 370.252 43.1133C370.713 43.6758 371.049 44.3594 371.26 45.1641C371.479 45.9688 371.588 46.875 371.588 47.8828ZM368.975 47.8828C368.975 46.4219 368.737 45.3359 368.26 44.625C367.791 43.9141 367.022 43.5586 365.952 43.5586C364.881 43.5586 364.1 43.9141 363.608 44.625C363.123 45.3359 362.881 46.4219 362.881 47.8828C362.881 49.3047 363.12 50.375 363.596 51.0938C364.08 51.8125 364.866 52.1719 365.952 52.1719C367.006 52.1719 367.772 51.8125 368.248 51.0938C368.733 50.375 368.975 49.3047 368.975 47.8828ZM380.502 44.1797C380.377 44.1328 380.212 44.0898 380.009 44.0508C379.814 44.0117 379.611 43.9922 379.4 43.9922C379.056 43.9922 378.732 44.0391 378.427 44.1328C378.123 44.2266 377.83 44.3555 377.548 44.5195C377.275 44.6758 377.009 44.8633 376.752 45.082C376.494 45.3008 376.24 45.5312 375.99 45.7734V54H373.47V41.707H375.99V43.582C376.255 43.3008 376.529 43.0352 376.81 42.7852C377.091 42.5352 377.384 42.3164 377.689 42.1289C378.002 41.9414 378.326 41.793 378.662 41.6836C378.998 41.5742 379.353 41.5195 379.728 41.5195C380.017 41.5195 380.263 41.543 380.466 41.5898C380.677 41.6289 380.857 41.6875 381.005 41.7656L380.502 44.1797ZM388.407 54C388.055 54.1094 387.657 54.1953 387.212 54.2578C386.774 54.3281 386.356 54.3633 385.958 54.3633C385.286 54.3633 384.712 54.2812 384.235 54.1172C383.766 53.9609 383.38 53.7188 383.075 53.3906C382.778 53.0547 382.559 52.6289 382.419 52.1133C382.278 51.5977 382.208 50.9883 382.208 50.2852V43.7578H380.555V41.707H382.208V38.2852H384.727V41.707H387.704V43.7578H384.727V49.8984C384.727 50.3359 384.751 50.707 384.798 51.0117C384.852 51.3086 384.938 51.5508 385.055 51.7383C385.173 51.9258 385.325 52.0625 385.512 52.1484C385.708 52.2344 385.942 52.2773 386.216 52.2773C386.489 52.2773 386.778 52.2461 387.083 52.1836C387.387 52.1133 387.653 52.0312 387.88 51.9375L388.407 54ZM401.37 54V52.6055C400.792 53.1211 400.179 53.543 399.53 53.8711C398.89 54.1992 398.191 54.3633 397.433 54.3633C396.808 54.3633 396.253 54.2695 395.769 54.082C395.284 53.8945 394.878 53.6328 394.55 53.2969C394.222 52.9531 393.972 52.5508 393.8 52.0898C393.628 51.6211 393.542 51.1055 393.542 50.543C393.542 49.8008 393.663 49.1797 393.905 48.6797C394.155 48.1797 394.495 47.7734 394.925 47.4609C395.363 47.1406 395.878 46.9023 396.472 46.7461C397.073 46.582 397.73 46.4648 398.441 46.3945L401.253 46.125V45.5508C401.253 45.1445 401.191 44.8086 401.066 44.543C400.948 44.2695 400.773 44.0508 400.538 43.8867C400.312 43.7227 400.027 43.6094 399.683 43.5469C399.347 43.4766 398.964 43.4414 398.534 43.4414C398.12 43.4414 397.757 43.4805 397.445 43.5586C397.14 43.6367 396.874 43.7383 396.648 43.8633C396.421 43.9883 396.234 44.1328 396.085 44.2969C395.937 44.4531 395.82 44.6094 395.734 44.7656L393.741 43.4883C393.89 43.2227 394.093 42.9648 394.351 42.7148C394.616 42.457 394.945 42.2305 395.335 42.0352C395.726 41.832 396.187 41.668 396.718 41.543C397.257 41.418 397.878 41.3555 398.581 41.3555C399.441 41.3555 400.195 41.4258 400.843 41.5664C401.491 41.707 402.03 41.9414 402.46 42.2695C402.898 42.5977 403.226 43.0391 403.445 43.5938C403.663 44.1406 403.773 44.8242 403.773 45.6445V54H401.37ZM401.253 48.0234L399.495 48.1875C398.956 48.2344 398.476 48.3086 398.054 48.4102C397.64 48.5117 397.288 48.6523 396.999 48.832C396.718 49.0117 396.503 49.2383 396.355 49.5117C396.206 49.7773 396.132 50.1055 396.132 50.4961C396.132 51.1445 396.304 51.6055 396.648 51.8789C396.991 52.1445 397.476 52.2773 398.101 52.2773C398.343 52.2773 398.593 52.2344 398.851 52.1484C399.116 52.0625 399.382 51.9492 399.648 51.8086C399.921 51.668 400.191 51.5039 400.456 51.3164C400.73 51.1211 400.995 50.918 401.253 50.707V48.0234ZM413.987 54V46.9922C413.987 46.3828 413.967 45.8672 413.928 45.4453C413.889 45.0156 413.803 44.668 413.67 44.4023C413.545 44.1367 413.366 43.9453 413.131 43.8281C412.897 43.7109 412.584 43.6523 412.194 43.6523C411.936 43.6523 411.659 43.7031 411.362 43.8047C411.073 43.9062 410.776 44.0469 410.471 44.2266C410.174 44.3984 409.873 44.6016 409.569 44.8359C409.264 45.0625 408.971 45.3008 408.69 45.5508V54H406.17V41.707H408.69V43.418C408.955 43.1523 409.252 42.8945 409.58 42.6445C409.909 42.3945 410.252 42.1758 410.612 41.9883C410.979 41.793 411.354 41.6406 411.737 41.5312C412.127 41.4141 412.518 41.3555 412.909 41.3555C413.596 41.3555 414.17 41.4531 414.631 41.6484C415.092 41.8438 415.459 42.1328 415.733 42.5156C416.014 42.8906 416.213 43.3555 416.33 43.9102C416.448 44.457 416.506 45.0859 416.506 45.7969V54H413.987ZM426.802 54V52.8047C426.295 53.2578 425.72 53.6328 425.08 53.9297C424.447 54.2188 423.752 54.3633 422.994 54.3633C422.166 54.3633 421.455 54.207 420.861 53.8945C420.267 53.5742 419.779 53.1289 419.396 52.5586C419.013 51.9883 418.732 51.3125 418.552 50.5312C418.373 49.75 418.283 48.8906 418.283 47.9531C418.283 47.1094 418.373 46.293 418.552 45.5039C418.732 44.707 419.021 44.0039 419.42 43.3945C419.826 42.7773 420.349 42.2852 420.99 41.918C421.63 41.543 422.412 41.3555 423.334 41.3555C423.943 41.3555 424.541 41.4766 425.127 41.7188C425.72 41.9531 426.24 42.2695 426.685 42.668V36.5508H429.205V54H426.802ZM426.685 44.8125C426.498 44.6484 426.291 44.4922 426.064 44.3438C425.845 44.1953 425.611 44.0664 425.361 43.957C425.111 43.8398 424.853 43.75 424.587 43.6875C424.322 43.6172 424.052 43.582 423.779 43.582C423.388 43.582 423.017 43.668 422.666 43.8398C422.314 44.0039 422.005 44.2617 421.74 44.6133C421.482 44.9648 421.275 45.4141 421.119 45.9609C420.962 46.5 420.884 47.1484 420.884 47.9062C420.884 49.2812 421.111 50.3281 421.564 51.0469C422.025 51.7656 422.701 52.125 423.591 52.125C423.873 52.125 424.154 52.0898 424.435 52.0195C424.724 51.9414 425.002 51.8398 425.267 51.7148C425.533 51.582 425.787 51.4336 426.029 51.2695C426.271 51.0977 426.49 50.918 426.685 50.7305V44.8125ZM240.242 78V70.7578C240.242 70.1484 240.223 69.6445 240.184 69.2461C240.152 68.8477 240.082 68.5312 239.973 68.2969C239.863 68.0625 239.707 67.8984 239.504 67.8047C239.301 67.7031 239.027 67.6523 238.684 67.6523C238.434 67.6523 238.176 67.707 237.91 67.8164C237.645 67.918 237.375 68.0586 237.102 68.2383C236.836 68.4102 236.57 68.6133 236.305 68.8477C236.047 69.0742 235.801 69.3086 235.566 69.5508V78H233.047V70.7578C233.047 70.1328 233.027 69.6211 232.988 69.2227C232.949 68.8164 232.875 68.5 232.766 68.2734C232.656 68.0391 232.5 67.8789 232.297 67.793C232.102 67.6992 231.84 67.6523 231.512 67.6523C231.246 67.6523 230.973 67.7109 230.691 67.8281C230.41 67.9375 230.133 68.0859 229.859 68.2734C229.586 68.4531 229.32 68.6562 229.062 68.8828C228.812 69.1094 228.582 69.332 228.371 69.5508V78H225.852V65.707H228.371V67.418C228.637 67.1211 228.918 66.8477 229.215 66.5977C229.512 66.3477 229.816 66.1328 230.129 65.9531C230.449 65.7656 230.781 65.6211 231.125 65.5195C231.469 65.4102 231.828 65.3555 232.203 65.3555C233.133 65.3555 233.844 65.543 234.336 65.918C234.828 66.2852 235.16 66.8477 235.332 67.6055C235.668 67.2539 235.996 66.9414 236.316 66.668C236.637 66.3867 236.961 66.1523 237.289 65.9648C237.625 65.7695 237.973 65.6211 238.332 65.5195C238.691 65.4102 239.074 65.3555 239.48 65.3555C240.137 65.3555 240.676 65.4609 241.098 65.6719C241.52 65.875 241.855 66.1719 242.105 66.5625C242.355 66.9453 242.527 67.4102 242.621 67.957C242.723 68.5039 242.773 69.1172 242.773 69.7969V78H240.242ZM252.284 78V76.6055C251.706 77.1211 251.093 77.543 250.445 77.8711C249.804 78.1992 249.105 78.3633 248.347 78.3633C247.722 78.3633 247.167 78.2695 246.683 78.082C246.198 77.8945 245.792 77.6328 245.464 77.2969C245.136 76.9531 244.886 76.5508 244.714 76.0898C244.542 75.6211 244.456 75.1055 244.456 74.543C244.456 73.8008 244.577 73.1797 244.82 72.6797C245.07 72.1797 245.409 71.7734 245.839 71.4609C246.277 71.1406 246.792 70.9023 247.386 70.7461C247.987 70.582 248.644 70.4648 249.355 70.3945L252.167 70.125V69.5508C252.167 69.1445 252.105 68.8086 251.98 68.543C251.862 68.2695 251.687 68.0508 251.452 67.8867C251.226 67.7227 250.941 67.6094 250.597 67.5469C250.261 67.4766 249.878 67.4414 249.448 67.4414C249.034 67.4414 248.671 67.4805 248.359 67.5586C248.054 67.6367 247.788 67.7383 247.562 67.8633C247.335 67.9883 247.148 68.1328 246.999 68.2969C246.851 68.4531 246.734 68.6094 246.648 68.7656L244.655 67.4883C244.804 67.2227 245.007 66.9648 245.265 66.7148C245.53 66.457 245.859 66.2305 246.249 66.0352C246.64 65.832 247.101 65.668 247.632 65.543C248.171 65.418 248.792 65.3555 249.495 65.3555C250.355 65.3555 251.109 65.4258 251.757 65.5664C252.405 65.707 252.945 65.9414 253.374 66.2695C253.812 66.5977 254.14 67.0391 254.359 67.5938C254.577 68.1406 254.687 68.8242 254.687 69.6445V78H252.284ZM252.167 72.0234L250.409 72.1875C249.87 72.2344 249.39 72.3086 248.968 72.4102C248.554 72.5117 248.202 72.6523 247.913 72.832C247.632 73.0117 247.417 73.2383 247.269 73.5117C247.12 73.7773 247.046 74.1055 247.046 74.4961C247.046 75.1445 247.218 75.6055 247.562 75.8789C247.905 76.1445 248.39 76.2773 249.015 76.2773C249.257 76.2773 249.507 76.2344 249.765 76.1484C250.03 76.0625 250.296 75.9492 250.562 75.8086C250.835 75.668 251.105 75.5039 251.37 75.3164C251.644 75.1211 251.909 74.918 252.167 74.707V72.0234ZM259.838 62.4727C259.838 62.9883 259.713 63.3477 259.463 63.5508C259.221 63.7461 258.842 63.8438 258.327 63.8438C257.764 63.8438 257.373 63.7266 257.155 63.4922C256.944 63.2578 256.838 62.918 256.838 62.4727C256.838 61.9883 256.952 61.6406 257.178 61.4297C257.405 61.2109 257.788 61.1016 258.327 61.1016C258.866 61.1016 259.252 61.207 259.487 61.418C259.721 61.6289 259.838 61.9805 259.838 62.4727ZM257.084 78V65.707H259.604V78H257.084ZM269.912 78V70.9922C269.912 70.3828 269.892 69.8672 269.853 69.4453C269.814 69.0156 269.728 68.668 269.595 68.4023C269.47 68.1367 269.291 67.9453 269.056 67.8281C268.822 67.7109 268.509 67.6523 268.119 67.6523C267.861 67.6523 267.584 67.7031 267.287 67.8047C266.998 67.9062 266.701 68.0469 266.396 68.2266C266.099 68.3984 265.798 68.6016 265.494 68.8359C265.189 69.0625 264.896 69.3008 264.615 69.5508V78H262.095V65.707H264.615V67.418C264.88 67.1523 265.177 66.8945 265.505 66.6445C265.834 66.3945 266.177 66.1758 266.537 65.9883C266.904 65.793 267.279 65.6406 267.662 65.5312C268.052 65.4141 268.443 65.3555 268.834 65.3555C269.521 65.3555 270.095 65.4531 270.556 65.6484C271.017 65.8438 271.384 66.1328 271.658 66.5156C271.939 66.8906 272.138 67.3555 272.255 67.9102C272.373 68.457 272.431 69.0859 272.431 69.7969V78H269.912ZM281.298 78C280.946 78.1094 280.548 78.1953 280.102 78.2578C279.665 78.3281 279.247 78.3633 278.848 78.3633C278.177 78.3633 277.602 78.2812 277.126 78.1172C276.657 77.9609 276.27 77.7188 275.966 77.3906C275.669 77.0547 275.45 76.6289 275.309 76.1133C275.169 75.5977 275.098 74.9883 275.098 74.2852V67.7578H273.446V65.707H275.098V62.2852H277.618V65.707H280.595V67.7578H277.618V73.8984C277.618 74.3359 277.641 74.707 277.688 75.0117C277.743 75.3086 277.829 75.5508 277.946 75.7383C278.063 75.9258 278.216 76.0625 278.403 76.1484C278.598 76.2344 278.833 76.2773 279.106 76.2773C279.38 76.2773 279.669 76.2461 279.973 76.1836C280.278 76.1133 280.544 76.0312 280.77 75.9375L281.298 78ZM284.094 72.3867C284.102 73.0039 284.164 73.5508 284.281 74.0273C284.406 74.4961 284.598 74.8906 284.855 75.2109C285.113 75.5234 285.445 75.7617 285.852 75.9258C286.266 76.0898 286.773 76.1719 287.375 76.1719C287.938 76.1719 288.434 76.0781 288.863 75.8906C289.301 75.6953 289.703 75.3672 290.07 74.9062L292.004 76.2188C291.77 76.5703 291.508 76.8789 291.219 77.1445C290.93 77.4102 290.594 77.6328 290.211 77.8125C289.828 77.9922 289.391 78.1289 288.898 78.2227C288.414 78.3164 287.859 78.3633 287.234 78.3633C285.273 78.3633 283.824 77.8242 282.887 76.7461C281.957 75.6602 281.492 74.0625 281.492 71.9531C281.492 70.9609 281.59 70.0625 281.785 69.2578C281.988 68.4453 282.309 67.75 282.746 67.1719C283.191 66.5938 283.77 66.1484 284.48 65.8359C285.191 65.5156 286.062 65.3555 287.094 65.3555C288.008 65.3555 288.785 65.4922 289.426 65.7656C290.074 66.0391 290.602 66.4258 291.008 66.9258C291.414 67.4258 291.711 68.0273 291.898 68.7305C292.086 69.4336 292.18 70.2109 292.18 71.0625V72.3867H284.094ZM289.684 70.5352C289.684 69.5117 289.469 68.7344 289.039 68.2031C288.609 67.6641 287.934 67.3945 287.012 67.3945C286.543 67.3945 286.141 67.4648 285.805 67.6055C285.477 67.7383 285.199 67.9375 284.973 68.2031C284.754 68.4688 284.578 68.7969 284.445 69.1875C284.312 69.5781 284.211 70.0273 284.141 70.5352H289.684ZM301.773 78V70.9922C301.773 70.3828 301.753 69.8672 301.714 69.4453C301.675 69.0156 301.589 68.668 301.456 68.4023C301.331 68.1367 301.152 67.9453 300.917 67.8281C300.683 67.7109 300.37 67.6523 299.98 67.6523C299.722 67.6523 299.445 67.7031 299.148 67.8047C298.859 67.9062 298.562 68.0469 298.257 68.2266C297.96 68.3984 297.659 68.6016 297.355 68.8359C297.05 69.0625 296.757 69.3008 296.476 69.5508V78H293.956V65.707H296.476V67.418C296.741 67.1523 297.038 66.8945 297.366 66.6445C297.695 66.3945 298.038 66.1758 298.398 65.9883C298.765 65.793 299.14 65.6406 299.523 65.5312C299.913 65.4141 300.304 65.3555 300.695 65.3555C301.382 65.3555 301.956 65.4531 302.417 65.6484C302.878 65.8438 303.245 66.1328 303.519 66.5156C303.8 66.8906 303.999 67.3555 304.116 67.9102C304.234 68.457 304.292 69.0859 304.292 69.7969V78H301.773ZM313.803 78V76.6055C313.225 77.1211 312.612 77.543 311.963 77.8711C311.323 78.1992 310.623 78.3633 309.866 78.3633C309.241 78.3633 308.686 78.2695 308.202 78.082C307.717 77.8945 307.311 77.6328 306.983 77.2969C306.655 76.9531 306.405 76.5508 306.233 76.0898C306.061 75.6211 305.975 75.1055 305.975 74.543C305.975 73.8008 306.096 73.1797 306.338 72.6797C306.588 72.1797 306.928 71.7734 307.358 71.4609C307.795 71.1406 308.311 70.9023 308.905 70.7461C309.506 70.582 310.162 70.4648 310.873 70.3945L313.686 70.125V69.5508C313.686 69.1445 313.623 68.8086 313.498 68.543C313.381 68.2695 313.205 68.0508 312.971 67.8867C312.745 67.7227 312.459 67.6094 312.116 67.5469C311.78 67.4766 311.397 67.4414 310.967 67.4414C310.553 67.4414 310.19 67.4805 309.877 67.5586C309.573 67.6367 309.307 67.7383 309.08 67.8633C308.854 67.9883 308.666 68.1328 308.518 68.2969C308.37 68.4531 308.252 68.6094 308.166 68.7656L306.174 67.4883C306.323 67.2227 306.526 66.9648 306.784 66.7148C307.049 66.457 307.377 66.2305 307.768 66.0352C308.159 65.832 308.62 65.668 309.151 65.543C309.69 65.418 310.311 65.3555 311.014 65.3555C311.873 65.3555 312.627 65.4258 313.276 65.5664C313.924 65.707 314.463 65.9414 314.893 66.2695C315.33 66.5977 315.659 67.0391 315.877 67.5938C316.096 68.1406 316.205 68.8242 316.205 69.6445V78H313.803ZM313.686 72.0234L311.928 72.1875C311.389 72.2344 310.909 72.3086 310.487 72.4102C310.073 72.5117 309.721 72.6523 309.432 72.832C309.151 73.0117 308.936 73.2383 308.787 73.5117C308.639 73.7773 308.565 74.1055 308.565 74.4961C308.565 75.1445 308.737 75.6055 309.08 75.8789C309.424 76.1445 309.909 76.2773 310.534 76.2773C310.776 76.2773 311.026 76.2344 311.284 76.1484C311.549 76.0625 311.815 75.9492 312.08 75.8086C312.354 75.668 312.623 75.5039 312.889 75.3164C313.162 75.1211 313.428 74.918 313.686 74.707V72.0234ZM326.42 78V70.9922C326.42 70.3828 326.4 69.8672 326.361 69.4453C326.322 69.0156 326.236 68.668 326.103 68.4023C325.978 68.1367 325.798 67.9453 325.564 67.8281C325.33 67.7109 325.017 67.6523 324.627 67.6523C324.369 67.6523 324.091 67.7031 323.795 67.8047C323.505 67.9062 323.209 68.0469 322.904 68.2266C322.607 68.3984 322.306 68.6016 322.002 68.8359C321.697 69.0625 321.404 69.3008 321.123 69.5508V78H318.603V65.707H321.123V67.418C321.388 67.1523 321.685 66.8945 322.013 66.6445C322.341 66.3945 322.685 66.1758 323.045 65.9883C323.412 65.793 323.787 65.6406 324.17 65.5312C324.56 65.4141 324.951 65.3555 325.341 65.3555C326.029 65.3555 326.603 65.4531 327.064 65.6484C327.525 65.8438 327.892 66.1328 328.166 66.5156C328.447 66.8906 328.646 67.3555 328.763 67.9102C328.88 68.457 328.939 69.0859 328.939 69.7969V78H326.42ZM341.04 76.1719C340.821 76.5078 340.571 76.8125 340.29 77.0859C340.009 77.3516 339.68 77.582 339.305 77.7773C338.938 77.9648 338.516 78.1094 338.04 78.2109C337.571 78.3125 337.044 78.3633 336.458 78.3633C335.427 78.3633 334.548 78.207 333.821 77.8945C333.095 77.582 332.501 77.1406 332.04 76.5703C331.579 76 331.243 75.3203 331.032 74.5312C330.821 73.7422 330.716 72.8672 330.716 71.9062C330.716 70.9062 330.825 70.0039 331.044 69.1992C331.27 68.3867 331.614 67.6992 332.075 67.1367C332.536 66.5664 333.122 66.1289 333.833 65.8242C334.544 65.5117 335.387 65.3555 336.364 65.3555C337.403 65.3555 338.305 65.5352 339.071 65.8945C339.837 66.2539 340.438 66.8008 340.876 67.5352L338.907 68.8594C338.634 68.4375 338.298 68.1172 337.899 67.8984C337.501 67.6719 336.997 67.5586 336.387 67.5586C335.333 67.5586 334.555 67.9102 334.055 68.6133C333.563 69.3086 333.317 70.4062 333.317 71.9062C333.317 72.5938 333.372 73.2031 333.481 73.7344C333.591 74.2656 333.766 74.7109 334.009 75.0703C334.259 75.4297 334.587 75.7031 334.993 75.8906C335.399 76.0781 335.895 76.1719 336.481 76.1719C336.755 76.1719 337.009 76.1523 337.243 76.1133C337.485 76.0664 337.712 75.9922 337.923 75.8906C338.134 75.7891 338.333 75.6562 338.52 75.4922C338.708 75.3281 338.891 75.125 339.071 74.8828L341.04 76.1719ZM344.352 72.3867C344.359 73.0039 344.422 73.5508 344.539 74.0273C344.664 74.4961 344.855 74.8906 345.113 75.2109C345.371 75.5234 345.703 75.7617 346.109 75.9258C346.523 76.0898 347.031 76.1719 347.633 76.1719C348.195 76.1719 348.691 76.0781 349.121 75.8906C349.559 75.6953 349.961 75.3672 350.328 74.9062L352.262 76.2188C352.027 76.5703 351.766 76.8789 351.477 77.1445C351.188 77.4102 350.852 77.6328 350.469 77.8125C350.086 77.9922 349.648 78.1289 349.156 78.2227C348.672 78.3164 348.117 78.3633 347.492 78.3633C345.531 78.3633 344.082 77.8242 343.145 76.7461C342.215 75.6602 341.75 74.0625 341.75 71.9531C341.75 70.9609 341.848 70.0625 342.043 69.2578C342.246 68.4453 342.566 67.75 343.004 67.1719C343.449 66.5938 344.027 66.1484 344.738 65.8359C345.449 65.5156 346.32 65.3555 347.352 65.3555C348.266 65.3555 349.043 65.4922 349.684 65.7656C350.332 66.0391 350.859 66.4258 351.266 66.9258C351.672 67.4258 351.969 68.0273 352.156 68.7305C352.344 69.4336 352.438 70.2109 352.438 71.0625V72.3867H344.352ZM349.941 70.5352C349.941 69.5117 349.727 68.7344 349.297 68.2031C348.867 67.6641 348.191 67.3945 347.27 67.3945C346.801 67.3945 346.398 67.4648 346.062 67.6055C345.734 67.7383 345.457 67.9375 345.23 68.2031C345.012 68.4688 344.836 68.7969 344.703 69.1875C344.57 69.5781 344.469 70.0273 344.398 70.5352H349.941ZM365.588 78C365.237 78.1094 364.838 78.1953 364.393 78.2578C363.955 78.3281 363.538 78.3633 363.139 78.3633C362.467 78.3633 361.893 78.2812 361.416 78.1172C360.948 77.9609 360.561 77.7188 360.256 77.3906C359.959 77.0547 359.741 76.6289 359.6 76.1133C359.459 75.5977 359.389 74.9883 359.389 74.2852V67.7578H357.737V65.707H359.389V62.2852H361.909V65.707H364.885V67.7578H361.909V73.8984C361.909 74.3359 361.932 74.707 361.979 75.0117C362.034 75.3086 362.12 75.5508 362.237 75.7383C362.354 75.9258 362.506 76.0625 362.694 76.1484C362.889 76.2344 363.123 76.2773 363.397 76.2773C363.67 76.2773 363.959 76.2461 364.264 76.1836C364.569 76.1133 364.834 76.0312 365.061 75.9375L365.588 78ZM377.091 71.8828C377.091 72.8828 376.982 73.7812 376.763 74.5781C376.552 75.375 376.216 76.0547 375.755 76.6172C375.302 77.1797 374.72 77.6133 374.009 77.918C373.298 78.2148 372.447 78.3633 371.455 78.3633C370.455 78.3633 369.595 78.2109 368.877 77.9062C368.158 77.6016 367.568 77.168 367.107 76.6055C366.654 76.043 366.318 75.3633 366.099 74.5664C365.888 73.7695 365.783 72.875 365.783 71.8828C365.783 70.875 365.892 69.9688 366.111 69.1641C366.33 68.3594 366.666 67.6758 367.119 67.1133C367.58 66.543 368.166 66.1094 368.877 65.8125C369.595 65.5078 370.455 65.3555 371.455 65.3555C372.447 65.3555 373.298 65.5078 374.009 65.8125C374.72 66.1094 375.302 66.543 375.755 67.1133C376.216 67.6758 376.552 68.3594 376.763 69.1641C376.982 69.9688 377.091 70.875 377.091 71.8828ZM374.478 71.8828C374.478 70.4219 374.24 69.3359 373.763 68.625C373.295 67.9141 372.525 67.5586 371.455 67.5586C370.384 67.5586 369.603 67.9141 369.111 68.625C368.627 69.3359 368.384 70.4219 368.384 71.8828C368.384 73.3047 368.623 74.375 369.099 75.0938C369.584 75.8125 370.369 76.1719 371.455 76.1719C372.509 76.1719 373.275 75.8125 373.752 75.0938C374.236 74.375 374.478 73.3047 374.478 71.8828ZM398.281 78V70.7578C398.281 70.1484 398.262 69.6445 398.223 69.2461C398.191 68.8477 398.121 68.5312 398.012 68.2969C397.902 68.0625 397.746 67.8984 397.543 67.8047C397.34 67.7031 397.066 67.6523 396.723 67.6523C396.473 67.6523 396.215 67.707 395.949 67.8164C395.684 67.918 395.414 68.0586 395.141 68.2383C394.875 68.4102 394.609 68.6133 394.344 68.8477C394.086 69.0742 393.84 69.3086 393.605 69.5508V78H391.086V70.7578C391.086 70.1328 391.066 69.6211 391.027 69.2227C390.988 68.8164 390.914 68.5 390.805 68.2734C390.695 68.0391 390.539 67.8789 390.336 67.793C390.141 67.6992 389.879 67.6523 389.551 67.6523C389.285 67.6523 389.012 67.7109 388.73 67.8281C388.449 67.9375 388.172 68.0859 387.898 68.2734C387.625 68.4531 387.359 68.6562 387.102 68.8828C386.852 69.1094 386.621 69.332 386.41 69.5508V78H383.891V65.707H386.41V67.418C386.676 67.1211 386.957 66.8477 387.254 66.5977C387.551 66.3477 387.855 66.1328 388.168 65.9531C388.488 65.7656 388.82 65.6211 389.164 65.5195C389.508 65.4102 389.867 65.3555 390.242 65.3555C391.172 65.3555 391.883 65.543 392.375 65.918C392.867 66.2852 393.199 66.8477 393.371 67.6055C393.707 67.2539 394.035 66.9414 394.355 66.668C394.676 66.3867 395 66.1523 395.328 65.9648C395.664 65.7695 396.012 65.6211 396.371 65.5195C396.73 65.4102 397.113 65.3555 397.52 65.3555C398.176 65.3555 398.715 65.4609 399.137 65.6719C399.559 65.875 399.895 66.1719 400.145 66.5625C400.395 66.9453 400.566 67.4102 400.66 67.957C400.762 68.5039 400.812 69.1172 400.812 69.7969V78H398.281ZM410.323 78V76.6055C409.745 77.1211 409.132 77.543 408.484 77.8711C407.843 78.1992 407.144 78.3633 406.386 78.3633C405.761 78.3633 405.206 78.2695 404.722 78.082C404.238 77.8945 403.831 77.6328 403.503 77.2969C403.175 76.9531 402.925 76.5508 402.753 76.0898C402.581 75.6211 402.495 75.1055 402.495 74.543C402.495 73.8008 402.616 73.1797 402.859 72.6797C403.109 72.1797 403.448 71.7734 403.878 71.4609C404.316 71.1406 404.831 70.9023 405.425 70.7461C406.027 70.582 406.683 70.4648 407.394 70.3945L410.206 70.125V69.5508C410.206 69.1445 410.144 68.8086 410.019 68.543C409.902 68.2695 409.726 68.0508 409.491 67.8867C409.265 67.7227 408.98 67.6094 408.636 67.5469C408.3 67.4766 407.917 67.4414 407.488 67.4414C407.073 67.4414 406.71 67.4805 406.398 67.5586C406.093 67.6367 405.827 67.7383 405.601 67.8633C405.374 67.9883 405.187 68.1328 405.038 68.2969C404.89 68.4531 404.773 68.6094 404.687 68.7656L402.695 67.4883C402.843 67.2227 403.046 66.9648 403.304 66.7148C403.57 66.457 403.898 66.2305 404.288 66.0352C404.679 65.832 405.14 65.668 405.671 65.543C406.21 65.418 406.831 65.3555 407.534 65.3555C408.394 65.3555 409.148 65.4258 409.796 65.5664C410.445 65.707 410.984 65.9414 411.413 66.2695C411.851 66.5977 412.179 67.0391 412.398 67.5938C412.616 68.1406 412.726 68.8242 412.726 69.6445V78H410.323ZM410.206 72.0234L408.448 72.1875C407.909 72.2344 407.429 72.3086 407.007 72.4102C406.593 72.5117 406.241 72.6523 405.952 72.832C405.671 73.0117 405.456 73.2383 405.308 73.5117C405.159 73.7773 405.085 74.1055 405.085 74.4961C405.085 75.1445 405.257 75.6055 405.601 75.8789C405.945 76.1445 406.429 76.2773 407.054 76.2773C407.296 76.2773 407.546 76.2344 407.804 76.1484C408.07 76.0625 408.335 75.9492 408.601 75.8086C408.874 75.668 409.144 75.5039 409.409 75.3164C409.683 75.1211 409.948 74.918 410.206 74.707V72.0234ZM422.483 78L418.885 72.6914L417.643 74.0625V78H415.123V60.5508H417.643V70.9922L422.202 65.707H425.178L420.42 70.9922L425.436 78H422.483ZM428.244 72.3867C428.252 73.0039 428.314 73.5508 428.431 74.0273C428.556 74.4961 428.748 74.8906 429.005 75.2109C429.263 75.5234 429.595 75.7617 430.002 75.9258C430.416 76.0898 430.923 76.1719 431.525 76.1719C432.087 76.1719 432.584 76.0781 433.013 75.8906C433.451 75.6953 433.853 75.3672 434.22 74.9062L436.154 76.2188C435.92 76.5703 435.658 76.8789 435.369 77.1445C435.08 77.4102 434.744 77.6328 434.361 77.8125C433.978 77.9922 433.541 78.1289 433.048 78.2227C432.564 78.3164 432.009 78.3633 431.384 78.3633C429.423 78.3633 427.974 77.8242 427.037 76.7461C426.107 75.6602 425.642 74.0625 425.642 71.9531C425.642 70.9609 425.74 70.0625 425.935 69.2578C426.138 68.4453 426.459 67.75 426.896 67.1719C427.341 66.5938 427.92 66.1484 428.63 65.8359C429.341 65.5156 430.212 65.3555 431.244 65.3555C432.158 65.3555 432.935 65.4922 433.576 65.7656C434.224 66.0391 434.752 66.4258 435.158 66.9258C435.564 67.4258 435.861 68.0273 436.048 68.7305C436.236 69.4336 436.33 70.2109 436.33 71.0625V72.3867H428.244ZM433.834 70.5352C433.834 69.5117 433.619 68.7344 433.189 68.2031C432.759 67.6641 432.084 67.3945 431.162 67.3945C430.693 67.3945 430.291 67.4648 429.955 67.6055C429.627 67.7383 429.349 67.9375 429.123 68.2031C428.904 68.4688 428.728 68.7969 428.595 69.1875C428.462 69.5781 428.361 70.0273 428.291 70.5352H433.834ZM455.281 78H452.984L450.102 69.3867L447.195 78H444.887L441.699 65.707H444.312L446.305 74.3555L449.141 65.707H451.133L454.016 74.332L455.938 65.707H458.457L455.281 78ZM461.605 72.3867C461.613 73.0039 461.675 73.5508 461.792 74.0273C461.917 74.4961 462.109 74.8906 462.366 75.2109C462.624 75.5234 462.956 75.7617 463.363 75.9258C463.777 76.0898 464.284 76.1719 464.886 76.1719C465.448 76.1719 465.945 76.0781 466.374 75.8906C466.812 75.6953 467.214 75.3672 467.581 74.9062L469.515 76.2188C469.28 76.5703 469.019 76.8789 468.73 77.1445C468.441 77.4102 468.105 77.6328 467.722 77.8125C467.339 77.9922 466.902 78.1289 466.409 78.2227C465.925 78.3164 465.37 78.3633 464.745 78.3633C462.784 78.3633 461.335 77.8242 460.398 76.7461C459.468 75.6602 459.003 74.0625 459.003 71.9531C459.003 70.9609 459.101 70.0625 459.296 69.2578C459.499 68.4453 459.82 67.75 460.257 67.1719C460.702 66.5938 461.28 66.1484 461.991 65.8359C462.702 65.5156 463.573 65.3555 464.605 65.3555C465.519 65.3555 466.296 65.4922 466.937 65.7656C467.585 66.0391 468.113 66.4258 468.519 66.9258C468.925 67.4258 469.222 68.0273 469.409 68.7305C469.597 69.4336 469.691 70.2109 469.691 71.0625V72.3867H461.605ZM467.195 70.5352C467.195 69.5117 466.98 68.7344 466.55 68.2031C466.12 67.6641 465.445 67.3945 464.523 67.3945C464.054 67.3945 463.652 67.4648 463.316 67.6055C462.988 67.7383 462.71 67.9375 462.484 68.2031C462.265 68.4688 462.089 68.7969 461.956 69.1875C461.823 69.5781 461.722 70.0273 461.652 70.5352H467.195ZM482.389 71.7656C482.389 72.6484 482.299 73.4883 482.12 74.2852C481.94 75.082 481.655 75.7852 481.264 76.3945C480.873 76.9961 480.37 77.4766 479.752 77.8359C479.135 78.1875 478.389 78.3633 477.514 78.3633C477.163 78.3633 476.811 78.3242 476.459 78.2461C476.116 78.168 475.784 78.0625 475.463 77.9297C475.143 77.7969 474.842 77.6445 474.561 77.4727C474.28 77.293 474.03 77.1094 473.811 76.9219L473.623 78H471.467V60.5508H473.987V66.8203C474.471 66.3984 475.026 66.0508 475.651 65.7773C476.276 65.4961 476.952 65.3555 477.678 65.3555C478.506 65.3555 479.217 65.5078 479.811 65.8125C480.405 66.1172 480.893 66.5508 481.276 67.1133C481.659 67.668 481.94 68.3398 482.12 69.1289C482.299 69.918 482.389 70.7969 482.389 71.7656ZM479.788 71.8125C479.788 70.4062 479.569 69.3516 479.131 68.6484C478.694 67.9375 478.002 67.582 477.057 67.582C476.784 67.582 476.506 67.6211 476.225 67.6992C475.944 67.7695 475.67 67.8711 475.405 68.0039C475.147 68.1289 474.897 68.2773 474.655 68.4492C474.413 68.6133 474.19 68.7891 473.987 68.9766V74.9297C474.174 75.0938 474.385 75.25 474.62 75.3984C474.854 75.5391 475.1 75.6641 475.358 75.7734C475.616 75.8828 475.877 75.9688 476.143 76.0312C476.409 76.0938 476.666 76.125 476.916 76.125C477.315 76.125 477.69 76.0469 478.041 75.8906C478.393 75.7344 478.698 75.4844 478.955 75.1406C479.213 74.7969 479.416 74.3516 479.565 73.8047C479.713 73.2578 479.788 72.5938 479.788 71.8125ZM493.13 74.5898C493.13 75.2695 492.998 75.8477 492.732 76.3242C492.474 76.8008 492.123 77.1914 491.677 77.4961C491.24 77.8008 490.732 78.0195 490.154 78.1523C489.576 78.293 488.97 78.3633 488.337 78.3633C487.697 78.3633 487.115 78.3086 486.591 78.1992C486.076 78.0898 485.615 77.9414 485.209 77.7539C484.802 77.5586 484.451 77.3281 484.154 77.0625C483.865 76.7969 483.627 76.5078 483.439 76.1953L485.361 74.9062C485.697 75.3984 486.111 75.75 486.603 75.9609C487.095 76.1719 487.65 76.2773 488.267 76.2773C488.572 76.2773 488.869 76.2539 489.158 76.207C489.447 76.1602 489.701 76.0781 489.92 75.9609C490.146 75.8359 490.326 75.6719 490.459 75.4688C490.599 75.2656 490.67 75.0117 490.67 74.707C490.67 74.4727 490.619 74.2734 490.517 74.1094C490.416 73.9453 490.255 73.8008 490.037 73.6758C489.818 73.543 489.533 73.4219 489.181 73.3125C488.837 73.1953 488.42 73.0781 487.927 72.9609C487.373 72.8203 486.841 72.6602 486.334 72.4805C485.826 72.3008 485.377 72.0664 484.986 71.7773C484.603 71.4805 484.295 71.1133 484.06 70.6758C483.826 70.2305 483.709 69.6797 483.709 69.0234C483.709 68.5 483.806 68.0156 484.002 67.5703C484.197 67.125 484.49 66.7383 484.88 66.4102C485.279 66.082 485.767 65.8242 486.345 65.6367C486.931 65.4492 487.611 65.3555 488.384 65.3555C488.923 65.3555 489.427 65.4062 489.896 65.5078C490.373 65.6094 490.802 65.7539 491.185 65.9414C491.576 66.1289 491.92 66.3555 492.216 66.6211C492.513 66.8789 492.755 67.168 492.943 67.4883L491.021 68.7891C490.904 68.6172 490.763 68.4492 490.599 68.2852C490.435 68.1211 490.24 67.9766 490.013 67.8516C489.795 67.7266 489.545 67.6289 489.263 67.5586C488.99 67.4805 488.681 67.4414 488.337 67.4414C487.681 67.4414 487.158 67.5703 486.767 67.8281C486.377 68.0781 486.181 68.4453 486.181 68.9297C486.181 69.1562 486.22 69.3477 486.298 69.5039C486.384 69.6602 486.517 69.8008 486.697 69.9258C486.884 70.0508 487.127 70.1641 487.423 70.2656C487.72 70.3594 488.08 70.457 488.502 70.5586C489.212 70.7383 489.853 70.9297 490.423 71.1328C491.002 71.3359 491.49 71.5859 491.888 71.8828C492.287 72.1797 492.591 72.5469 492.802 72.9844C493.021 73.4141 493.13 73.9492 493.13 74.5898ZM497.626 62.4727C497.626 62.9883 497.501 63.3477 497.251 63.5508C497.009 63.7461 496.63 63.8438 496.114 63.8438C495.552 63.8438 495.161 63.7266 494.942 63.4922C494.731 63.2578 494.626 62.918 494.626 62.4727C494.626 61.9883 494.739 61.6406 494.966 61.4297C495.192 61.2109 495.575 61.1016 496.114 61.1016C496.653 61.1016 497.04 61.207 497.274 61.418C497.509 61.6289 497.626 61.9805 497.626 62.4727ZM494.872 78V65.707H497.391V78H494.872ZM506.34 78C505.988 78.1094 505.59 78.1953 505.145 78.2578C504.707 78.3281 504.289 78.3633 503.891 78.3633C503.219 78.3633 502.645 78.2812 502.168 78.1172C501.699 77.9609 501.312 77.7188 501.008 77.3906C500.711 77.0547 500.492 76.6289 500.352 76.1133C500.211 75.5977 500.141 74.9883 500.141 74.2852V67.7578H498.488V65.707H500.141V62.2852H502.66V65.707H505.637V67.7578H502.66V73.8984C502.66 74.3359 502.684 74.707 502.73 75.0117C502.785 75.3086 502.871 75.5508 502.988 75.7383C503.105 75.9258 503.258 76.0625 503.445 76.1484C503.641 76.2344 503.875 76.2773 504.148 76.2773C504.422 76.2773 504.711 76.2461 505.016 76.1836C505.32 76.1133 505.586 76.0312 505.812 75.9375L506.34 78ZM509.136 72.3867C509.144 73.0039 509.206 73.5508 509.323 74.0273C509.448 74.4961 509.64 74.8906 509.898 75.2109C510.155 75.5234 510.487 75.7617 510.894 75.9258C511.308 76.0898 511.816 76.1719 512.417 76.1719C512.98 76.1719 513.476 76.0781 513.905 75.8906C514.343 75.6953 514.745 75.3672 515.112 74.9062L517.046 76.2188C516.812 76.5703 516.55 76.8789 516.261 77.1445C515.972 77.4102 515.636 77.6328 515.253 77.8125C514.87 77.9922 514.433 78.1289 513.941 78.2227C513.456 78.3164 512.902 78.3633 512.277 78.3633C510.316 78.3633 508.866 77.8242 507.929 76.7461C506.999 75.6602 506.534 74.0625 506.534 71.9531C506.534 70.9609 506.632 70.0625 506.827 69.2578C507.03 68.4453 507.351 67.75 507.788 67.1719C508.234 66.5938 508.812 66.1484 509.523 65.8359C510.234 65.5156 511.105 65.3555 512.136 65.3555C513.05 65.3555 513.827 65.4922 514.468 65.7656C515.116 66.0391 515.644 66.4258 516.05 66.9258C516.456 67.4258 516.753 68.0273 516.941 68.7305C517.128 69.4336 517.222 70.2109 517.222 71.0625V72.3867H509.136ZM514.726 70.5352C514.726 69.5117 514.511 68.7344 514.081 68.2031C513.652 67.6641 512.976 67.3945 512.054 67.3945C511.585 67.3945 511.183 67.4648 510.847 67.6055C510.519 67.7383 510.241 67.9375 510.015 68.2031C509.796 68.4688 509.62 68.7969 509.487 69.1875C509.355 69.5781 509.253 70.0273 509.183 70.5352H514.726Z" fill="white"/>
</svg>
