<svg width="224" height="96" viewBox="0 0 224 96" fill="none" xmlns="http://www.w3.org/2000/svg">
<g clip-path="url(#clip0_44_1561)">
<path d="M221.538 1.54851V72.6252H93.1508V1.54851H221.53M223.079 0H91.6023V74.1737H223.079V0Z" fill="white"/>
<path d="M23.1115 68.2197C20.8043 68.9088 18.3731 69.2495 15.8181 69.2495C11.7764 69.2495 8.86523 68.3358 7.09218 66.5163C5.31914 64.6968 4.42874 61.7469 4.42874 57.6588V40.1065H0V33.2775H4.42874V23.5529H13.023V33.2775H21.1527V40.1065H13.023V56.5594C13.023 58.7351 13.3637 60.2139 14.0373 60.9881C14.7109 61.7624 15.6709 62.1573 16.9175 62.1573C18.497 62.1573 20.061 61.8321 21.6095 61.1894L23.1115 68.2197Z" fill="white"/>
<path d="M47.098 68.2197V48.9717C47.098 45.2862 46.7573 42.8473 46.0682 41.6472C45.3791 40.4471 44.1558 39.851 42.406 39.851C39.8509 39.851 36.7771 41.5388 33.1846 44.9146V68.2275H24.5903V18.6364H33.1846V37.8224C35.0041 36.0029 36.9475 34.6247 39.0147 33.6956C41.082 32.7665 43.1028 32.2942 45.0771 32.2942C48.9871 32.2942 51.728 33.3937 53.323 35.5926C54.9102 37.7914 55.7077 40.8962 55.7077 44.9146V68.2275H47.1134L47.098 68.2197Z" fill="white"/>
<path d="M68.39 53.0056C68.5448 56.1104 69.3036 58.348 70.6508 59.7029C72.0057 61.0579 74.1349 61.7315 77.0461 61.7315C78.734 61.7315 80.2129 61.5224 81.4904 61.0966C82.7679 60.6785 83.8828 59.8655 84.8352 58.6654L91.2305 63.2258C89.8291 65.2466 88.0174 66.7564 85.7875 67.7552C83.5576 68.754 80.5071 69.2572 76.6435 69.2572C70.8908 69.2572 66.6014 67.7474 63.7754 64.7278C60.9416 61.7082 59.5325 57.1479 59.5325 51.039C59.5325 38.5425 65.1303 32.2865 76.3183 32.2865C81.2891 32.2865 85.0829 33.6879 87.6922 36.4985C90.3014 39.309 91.6022 43.3971 91.6022 48.7704V52.9978H68.39V53.0056ZM83.0776 47.0748C83.0776 41.7711 80.7548 39.1154 76.117 39.1154C74.584 39.1154 73.3297 39.3787 72.3541 39.8974C71.3786 40.4162 70.5966 41.1982 70.0082 42.2279C69.4197 43.2577 68.9629 44.8759 68.6222 47.0748H83.0776Z" fill="white"/>
<path d="M132.576 68.2197H124.748L116.889 45.9753L109 68.2197H101.141L91.6177 33.2853H100.545L105.941 55.8006L113.769 33.2853H120.265L128.155 55.5993L133.35 33.2853H141.944L132.584 68.2197H132.576Z" fill="white"/>
<path d="M150.941 53.0056C151.096 56.1104 151.855 58.348 153.202 59.7029C154.557 61.0579 156.686 61.7315 159.597 61.7315C161.285 61.7315 162.764 61.5224 164.042 61.0966C165.319 60.6785 166.434 59.8655 167.386 58.6654L173.782 63.2258C172.38 65.2466 170.569 66.7564 168.339 67.7552C166.109 68.754 163.058 69.2572 159.195 69.2572C153.442 69.2572 149.153 67.7474 146.327 64.7278C143.493 61.7082 142.084 57.1479 142.084 51.039C142.084 38.5425 147.682 32.2865 158.87 32.2865C163.84 32.2865 167.634 33.6879 170.243 36.4985C172.853 39.309 174.153 43.3971 174.153 48.7704V52.9978H150.941V53.0056ZM165.629 47.0748C165.629 41.7711 163.306 39.1154 158.668 39.1154C157.135 39.1154 155.881 39.3787 154.905 39.8974C153.93 40.4162 153.148 41.1982 152.559 42.2279C151.971 43.2577 151.514 44.8759 151.174 47.0748H165.629Z" fill="white"/>
<path d="M210.698 50.5047C210.698 56.2962 209.483 60.872 207.051 64.2245C204.62 67.5771 201.152 69.2495 196.645 69.2495C194.872 69.2495 192.929 68.8469 190.831 68.0339C188.733 67.2209 187.06 66.1989 185.821 64.9523L184.652 68.2197H178.094V18.6364H186.688V36.0881C189.84 33.5563 193.324 32.2942 197.149 32.2942C201.833 32.2942 205.263 33.9124 207.439 37.1411C209.614 40.3697 210.706 44.8294 210.706 50.5125L210.698 50.5047ZM201.841 50.6364C201.841 47.0438 201.275 44.3417 200.145 42.5454C199.015 40.7491 197.195 39.851 194.687 39.851C193.285 39.851 191.876 40.1762 190.444 40.8343C189.011 41.4924 187.765 42.2976 186.696 43.25V58.5338C187.649 59.3545 188.81 60.0823 190.173 60.7172C191.535 61.3521 192.867 61.6695 194.152 61.6695C196.614 61.6695 198.511 60.7326 199.851 58.8589C201.183 56.9852 201.848 54.2444 201.848 50.6518L201.841 50.6364Z" fill="white"/>
<path d="M5.11009 91.6797C4.86233 91.4861 4.59134 91.3313 4.28938 91.2074C3.98742 91.0835 3.6932 90.9674 3.3835 90.8667C3.08154 90.7661 2.80281 90.6499 2.55504 90.526C2.30728 90.4022 2.10598 90.2473 1.95113 90.0692C1.79627 89.8912 1.71885 89.6589 1.71885 89.3647C1.71885 89.0008 1.85821 88.7143 2.1292 88.513C2.40019 88.3117 2.77184 88.211 3.23639 88.211C3.61578 88.211 3.95645 88.2884 4.25067 88.4355C4.54488 88.5827 4.82361 88.8072 5.07912 89.1091L5.8766 88.3117C5.59787 87.9555 5.22623 87.669 4.7849 87.4445C4.34358 87.22 3.83257 87.1116 3.26736 87.1116C2.75635 87.1116 2.2918 87.2045 1.88144 87.3903C1.47109 87.5761 1.1459 87.8394 0.913622 88.1878C0.673603 88.5285 0.557464 88.9466 0.557464 89.4343C0.557464 89.8834 0.63489 90.2473 0.781999 90.5338C0.929107 90.8203 1.13041 91.0525 1.38592 91.2384C1.64142 91.4242 1.91241 91.5713 2.21437 91.6952C2.51633 91.819 2.81055 91.9274 3.11251 92.0281C3.41447 92.1287 3.68546 92.2449 3.93322 92.3688C4.18098 92.5004 4.38229 92.663 4.53714 92.8566C4.69199 93.0501 4.76942 93.3134 4.76942 93.6386C4.76942 94.0257 4.61457 94.3354 4.30486 94.5599C3.99516 94.7844 3.58481 94.8928 3.06605 94.8928C2.5473 94.8928 2.10598 94.7922 1.74982 94.5986C1.39366 94.4051 1.07622 94.1186 0.805226 93.7315L0 94.5444C0.371643 95.0167 0.797484 95.3806 1.28526 95.6284C1.7653 95.8762 2.346 96 3.01186 96C3.91774 96 4.63005 95.7832 5.15654 95.3497C5.68304 94.9161 5.94629 94.3199 5.94629 93.5611C5.94629 93.1043 5.86886 92.7249 5.71401 92.423C5.55916 92.121 5.35785 91.8732 5.11009 91.6797Z" fill="white"/>
<path d="M25.7672 88.3968C25.3723 87.9942 24.9078 87.6768 24.3813 87.4523C23.8548 87.2277 23.2818 87.1193 22.6702 87.1193C22.0585 87.1193 21.4856 87.2277 20.9591 87.4523C20.4326 87.6768 19.9758 87.9942 19.5809 88.3968C19.186 88.8072 18.8763 89.2718 18.6518 89.806C18.4272 90.3402 18.3188 90.9209 18.3188 91.5403C18.3188 92.1597 18.4272 92.7327 18.6518 93.2669C18.8763 93.8012 19.186 94.2812 19.5886 94.6916C19.9835 95.1019 20.4481 95.4194 20.9823 95.6516C21.5165 95.8839 22.0895 95.9923 22.7011 95.9923C23.3128 95.9923 23.8703 95.8762 24.3968 95.6516C24.9233 95.4271 25.3801 95.1096 25.7749 94.6993C26.1698 94.2889 26.4795 93.8166 26.704 93.2824C26.9286 92.7482 27.037 92.1675 27.037 91.5558C27.037 90.9442 26.9286 90.3557 26.704 89.8137C26.4795 89.2718 26.1698 88.7995 25.7672 88.3968ZM25.411 93.2669C25.14 93.7702 24.7684 94.1651 24.2961 94.4515C23.8238 94.738 23.2818 94.8774 22.6624 94.8774C22.2056 94.8774 21.7875 94.7922 21.4004 94.6296C21.0133 94.467 20.6803 94.2347 20.4093 93.9405C20.1306 93.6463 19.9138 93.2901 19.759 92.8798C19.6041 92.4694 19.5267 92.0204 19.5267 91.5403C19.5267 90.89 19.6583 90.3247 19.9293 89.8215C20.2003 89.326 20.5642 88.9311 21.0365 88.6524C21.5088 88.3736 22.043 88.2265 22.6624 88.2265C23.127 88.2265 23.5528 88.3039 23.9322 88.4665C24.3116 88.6291 24.6445 88.8614 24.931 89.1556C25.2175 89.4498 25.4343 89.806 25.5814 90.2086C25.7362 90.6112 25.8136 91.0525 25.8136 91.5326C25.8136 92.183 25.682 92.7559 25.411 93.2592V93.2669Z" fill="white"/>
<path d="M41.0046 87.2432H39.8354V95.8762H40.6329H41.0046H45.263V94.8077H41.0046V87.2432Z" fill="white"/>
<path d="M62.9936 92.663C62.9936 93.1121 62.9006 93.4992 62.7148 93.8321C62.529 94.165 62.2735 94.4206 61.956 94.6064C61.6386 94.7922 61.267 94.8774 60.8566 94.8774C60.4463 94.8774 60.0669 94.7845 59.7417 94.6064C59.4165 94.4206 59.1532 94.165 58.9674 93.8321C58.7739 93.4992 58.6809 93.1043 58.6809 92.6475V87.2355H57.4963V92.6707C57.4963 93.3056 57.6434 93.8708 57.9377 94.3664C58.2319 94.8696 58.6345 95.2645 59.1378 95.551C59.641 95.8452 60.214 95.9845 60.8566 95.9845C61.4992 95.9845 62.0644 95.8374 62.56 95.551C63.0555 95.2645 63.4504 94.8696 63.7446 94.3664C64.0388 93.8631 64.1782 93.3056 64.1782 92.6707V87.22H62.9936V92.6475V92.663Z" fill="white"/>
<path d="M76.5273 88.3117H79.4463V95.8762H80.6309V88.3117H83.5576V87.2432H76.5273V88.3117Z" fill="white"/>
<path d="M97.3163 87.2432H96.1472V95.8762H97.3163V87.2432Z" fill="white"/>
<path d="M117.555 88.3968C117.16 87.9942 116.696 87.6768 116.169 87.4523C115.643 87.2277 115.07 87.1193 114.458 87.1193C113.847 87.1193 113.274 87.2277 112.747 87.4523C112.221 87.6768 111.764 87.9942 111.369 88.3968C110.974 88.8072 110.664 89.2718 110.44 89.806C110.215 90.3402 110.107 90.9209 110.107 91.5403C110.107 92.1597 110.215 92.7327 110.44 93.2669C110.664 93.8012 110.974 94.2812 111.377 94.6916C111.772 95.1019 112.236 95.4194 112.77 95.6516C113.305 95.8839 113.878 95.9923 114.489 95.9923C115.101 95.9923 115.658 95.8762 116.185 95.6516C116.711 95.4271 117.168 95.1096 117.563 94.6993C117.958 94.2889 118.268 93.8166 118.492 93.2824C118.717 92.7482 118.825 92.1675 118.825 91.5558C118.825 90.9442 118.717 90.3557 118.492 89.8137C118.268 89.2718 117.958 88.7995 117.555 88.3968ZM117.199 93.2669C116.928 93.7702 116.556 94.1651 116.084 94.4515C115.612 94.738 115.07 94.8774 114.451 94.8774C113.994 94.8774 113.576 94.7922 113.188 94.6296C112.801 94.467 112.468 94.2347 112.197 93.9405C111.919 93.6463 111.702 93.2901 111.547 92.8798C111.392 92.4694 111.315 92.0204 111.315 91.5403C111.315 90.89 111.446 90.3247 111.717 89.8215C111.988 89.326 112.352 88.9311 112.825 88.6524C113.297 88.3736 113.831 88.2265 114.451 88.2265C114.915 88.2265 115.341 88.3039 115.72 88.4665C116.1 88.6291 116.433 88.8614 116.719 89.1556C117.006 89.4498 117.222 89.806 117.369 90.2086C117.524 90.6112 117.602 91.0525 117.602 91.5326C117.602 92.183 117.47 92.7559 117.199 93.2592V93.2669Z" fill="white"/>
<path d="M137.252 93.6308L132.452 87.2432H131.631V95.8762H132.8V89.4731L137.601 95.8762H138.422V87.2432H137.252V93.6308Z" fill="white"/>
<path d="M155.974 91.6797C155.726 91.4861 155.455 91.3313 155.153 91.2074C154.851 91.0835 154.557 90.9674 154.247 90.8667C153.945 90.7661 153.667 90.6499 153.419 90.526C153.171 90.4022 152.97 90.2473 152.815 90.0692C152.66 89.8912 152.583 89.6589 152.583 89.3647C152.583 89.0008 152.722 88.7143 152.993 88.513C153.264 88.3117 153.636 88.211 154.1 88.211C154.48 88.211 154.82 88.2884 155.115 88.4355C155.409 88.5827 155.687 88.8072 155.943 89.1091L156.74 88.3117C156.462 87.9555 156.09 87.669 155.649 87.4445C155.207 87.22 154.696 87.1116 154.131 87.1116C153.62 87.1116 153.156 87.2045 152.745 87.3903C152.335 87.5761 152.01 87.8394 151.777 88.1878C151.537 88.5285 151.421 88.9466 151.421 89.4343C151.421 89.8834 151.499 90.2473 151.646 90.5338C151.793 90.8203 151.994 91.0525 152.25 91.2384C152.505 91.4242 152.776 91.5713 153.078 91.6952C153.38 91.819 153.674 91.9274 153.976 92.0281C154.278 92.1288 154.549 92.2449 154.797 92.3688C155.045 92.5004 155.246 92.663 155.401 92.8566C155.556 93.0501 155.633 93.3134 155.633 93.6386C155.633 94.0257 155.478 94.3354 155.169 94.5599C154.859 94.7844 154.449 94.8928 153.93 94.8928C153.411 94.8928 152.97 94.7922 152.614 94.5986C152.258 94.4051 151.94 94.1186 151.669 93.7315L150.872 94.5289C151.243 95.0012 151.669 95.3651 152.157 95.6129C152.637 95.8607 153.218 95.9845 153.883 95.9845C154.789 95.9845 155.502 95.7678 156.028 95.3342C156.555 94.9006 156.818 94.3044 156.818 93.5456C156.818 93.0888 156.74 92.7094 156.586 92.4075C156.431 92.1055 156.229 91.8578 155.982 91.6642L155.974 91.6797Z" fill="white"/>
<path d="M170.367 94.3663C170.127 94.3663 169.934 94.4438 169.779 94.5986C169.632 94.7535 169.554 94.947 169.554 95.1793C169.554 95.4116 169.632 95.5974 169.779 95.76C169.926 95.9226 170.119 96 170.367 96C170.615 96 170.793 95.9226 170.948 95.76C171.103 95.5974 171.18 95.4038 171.18 95.1793C171.18 94.9548 171.103 94.7535 170.948 94.5986C170.793 94.4438 170.599 94.3663 170.367 94.3663Z" fill="white"/>
<path d="M189.259 94.6141C188.864 94.7922 188.392 94.8851 187.85 94.8851C187.393 94.8851 186.975 94.8077 186.596 94.6451C186.216 94.4825 185.883 94.2502 185.605 93.956C185.326 93.6541 185.101 93.3056 184.954 92.8953C184.807 92.4849 184.722 92.0436 184.722 91.5636C184.722 91.0835 184.799 90.6422 184.954 90.2318C185.109 89.8215 185.326 89.4731 185.605 89.1711C185.883 88.8692 186.216 88.6446 186.596 88.482C186.975 88.3194 187.393 88.242 187.842 88.242C188.345 88.242 188.802 88.3272 189.197 88.5053C189.592 88.6833 189.933 88.9233 190.204 89.2253L191.009 88.4201C190.614 88.0252 190.157 87.7078 189.638 87.4755C189.127 87.2432 188.524 87.1271 187.834 87.1271C187.223 87.1271 186.65 87.2432 186.116 87.4677C185.581 87.7 185.125 88.0097 184.737 88.4123C184.35 88.815 184.048 89.2873 183.832 89.8215C183.615 90.3557 183.506 90.9442 183.506 91.5636C183.506 92.183 183.615 92.7559 183.832 93.2902C184.048 93.8244 184.35 94.3044 184.745 94.707C185.14 95.1097 185.605 95.4271 186.131 95.6594C186.665 95.8917 187.238 96 187.858 96C188.531 96 189.135 95.8839 189.669 95.6516C190.204 95.4194 190.668 95.1019 191.071 94.6916L190.266 93.8863C189.995 94.196 189.654 94.4361 189.259 94.6141Z" fill="white"/>
<path d="M209.475 95.8762H210.745L207.222 87.2432H206.378L202.832 95.8762H204.086L204.868 93.9251H208.693L209.475 95.8762ZM205.278 92.903L206.788 89.1324L208.29 92.903H205.278Z" fill="white"/>
</g>
<defs>
<clipPath id="clip0_44_1561">
<rect width="223.086" height="96" fill="white"/>
</clipPath>
</defs>
</svg>
