<svg width="124" height="124" viewBox="0 0 124 124" fill="none" xmlns="http://www.w3.org/2000/svg">
<path fillRule="evenodd" clipRule="evenodd" d="M62 52.25C62.4142 52.25 62.75 52.5858 62.75 53L62.75 69.1893L65.2197 66.7197C65.5126 66.4268 65.9874 66.4268 66.2803 66.7197C66.5732 67.0126 66.5732 67.4874 66.2803 67.7803L62.5303 71.5303C62.2374 71.8232 61.7626 71.8232 61.4697 71.5303L57.7197 67.7803C57.4268 67.4874 57.4268 67.0126 57.7197 66.7197C58.0126 66.4268 58.4874 66.4268 58.7803 66.7197L61.25 69.1893L61.25 53C61.25 52.5858 61.5858 52.25 62 52.25Z" fill="white"/>
<rect x="0.5" y="0.5" width="123" height="123" rx="61.5" stroke="white"/>
</svg>
